<mxfile host="app.diagrams.net" agent="Mozilla/5.0 (X11; Linux x86_64) AppleWebKit/537.36 (KHTML, like Gecko) Chrome/134.0.0.0 Safari/537.36 Edg/134.0.0.0" version="26.1.3">
  <diagram name="Page-1" id="i0JoWHrgrwpdoupBjsw-">
    <mxGraphModel dx="4264" dy="994" grid="1" gridSize="10" guides="1" tooltips="1" connect="1" arrows="1" fold="1" page="1" pageScale="1" pageWidth="827" pageHeight="1169" math="0" shadow="0">
      <root>
        <mxCell id="0" />
        <mxCell id="1" parent="0" />
        <mxCell id="fopj0CuFSMQbgC9IibL4-1" value="Usuário" style="swimlane;html=1;startSize=20;fontStyle=0;collapsible=0;horizontal=0;swimlaneLine=1;swimlaneFillColor=#ffffff;strokeWidth=2;whiteSpace=wrap;" parent="1" vertex="1">
          <mxGeometry x="-1310" y="380" width="3290" height="720" as="geometry" />
        </mxCell>
        <mxCell id="cUy3ryo8K3psTatHILnv-51" value="Deseja ver um filme" style="points=[[0.145,0.145,0],[0.5,0,0],[0.855,0.145,0],[1,0.5,0],[0.855,0.855,0],[0.5,1,0],[0.145,0.855,0],[0,0.5,0]];shape=mxgraph.bpmn.event;html=1;verticalLabelPosition=bottom;labelBackgroundColor=#ffffff;verticalAlign=top;align=center;perimeter=ellipsePerimeter;outlineConnect=0;aspect=fixed;outline=standard;symbol=general;" vertex="1" parent="fopj0CuFSMQbgC9IibL4-1">
          <mxGeometry x="80" y="75" width="50" height="50" as="geometry" />
        </mxCell>
        <mxCell id="cUy3ryo8K3psTatHILnv-52" value="Ver sessões disponíveis" style="points=[[0.25,0,0],[0.5,0,0],[0.75,0,0],[1,0.25,0],[1,0.5,0],[1,0.75,0],[0.75,1,0],[0.5,1,0],[0.25,1,0],[0,0.75,0],[0,0.5,0],[0,0.25,0]];shape=mxgraph.bpmn.task;whiteSpace=wrap;rectStyle=rounded;size=10;html=1;container=1;expand=0;collapsible=0;taskMarker=abstract;" vertex="1" parent="fopj0CuFSMQbgC9IibL4-1">
          <mxGeometry x="240" y="60" width="120" height="80" as="geometry" />
        </mxCell>
        <mxCell id="cUy3ryo8K3psTatHILnv-54" style="edgeStyle=orthogonalEdgeStyle;rounded=0;orthogonalLoop=1;jettySize=auto;html=1;exitX=1;exitY=0.5;exitDx=0;exitDy=0;exitPerimeter=0;entryX=0;entryY=0.5;entryDx=0;entryDy=0;entryPerimeter=0;" edge="1" parent="fopj0CuFSMQbgC9IibL4-1" source="cUy3ryo8K3psTatHILnv-51" target="cUy3ryo8K3psTatHILnv-52">
          <mxGeometry relative="1" as="geometry" />
        </mxCell>
        <mxCell id="cUy3ryo8K3psTatHILnv-61" value="Escolher tipos de ingressos" style="points=[[0.25,0,0],[0.5,0,0],[0.75,0,0],[1,0.25,0],[1,0.5,0],[1,0.75,0],[0.75,1,0],[0.5,1,0],[0.25,1,0],[0,0.75,0],[0,0.5,0],[0,0.25,0]];shape=mxgraph.bpmn.task;whiteSpace=wrap;rectStyle=rounded;size=10;html=1;container=1;expand=0;collapsible=0;taskMarker=abstract;" vertex="1" parent="fopj0CuFSMQbgC9IibL4-1">
          <mxGeometry x="850" y="60" width="120" height="80" as="geometry" />
        </mxCell>
        <mxCell id="cUy3ryo8K3psTatHILnv-62" style="edgeStyle=orthogonalEdgeStyle;rounded=0;orthogonalLoop=1;jettySize=auto;html=1;exitX=1;exitY=0.5;exitDx=0;exitDy=0;exitPerimeter=0;entryX=0;entryY=0.5;entryDx=0;entryDy=0;entryPerimeter=0;" edge="1" parent="fopj0CuFSMQbgC9IibL4-1" source="cUy3ryo8K3psTatHILnv-79" target="cUy3ryo8K3psTatHILnv-61">
          <mxGeometry relative="1" as="geometry">
            <mxPoint x="917" y="100" as="sourcePoint" />
          </mxGeometry>
        </mxCell>
        <mxCell id="cUy3ryo8K3psTatHILnv-64" style="edgeStyle=orthogonalEdgeStyle;rounded=0;orthogonalLoop=1;jettySize=auto;html=1;exitX=1;exitY=0.5;exitDx=0;exitDy=0;exitPerimeter=0;entryX=0;entryY=0.5;entryDx=0;entryDy=0;entryPerimeter=0;" edge="1" parent="fopj0CuFSMQbgC9IibL4-1" source="cUy3ryo8K3psTatHILnv-61" target="cUy3ryo8K3psTatHILnv-68">
          <mxGeometry relative="1" as="geometry">
            <mxPoint x="1403" y="100" as="targetPoint" />
          </mxGeometry>
        </mxCell>
        <mxCell id="cUy3ryo8K3psTatHILnv-67" style="edgeStyle=orthogonalEdgeStyle;rounded=0;orthogonalLoop=1;jettySize=auto;html=1;exitX=1;exitY=0.5;exitDx=0;exitDy=0;exitPerimeter=0;entryX=0;entryY=0.5;entryDx=0;entryDy=0;entryPerimeter=0;" edge="1" parent="fopj0CuFSMQbgC9IibL4-1" source="cUy3ryo8K3psTatHILnv-68" target="cUy3ryo8K3psTatHILnv-119">
          <mxGeometry relative="1" as="geometry">
            <mxPoint x="1523" y="100" as="sourcePoint" />
            <mxPoint x="1390" y="100" as="targetPoint" />
          </mxGeometry>
        </mxCell>
        <mxCell id="cUy3ryo8K3psTatHILnv-68" value="Pedido feito" style="points=[[0.145,0.145,0],[0.5,0,0],[0.855,0.145,0],[1,0.5,0],[0.855,0.855,0],[0.5,1,0],[0.145,0.855,0],[0,0.5,0]];shape=mxgraph.bpmn.event;html=1;verticalLabelPosition=bottom;labelBackgroundColor=#ffffff;verticalAlign=top;align=center;perimeter=ellipsePerimeter;outlineConnect=0;aspect=fixed;outline=throwing;symbol=message;" vertex="1" parent="fopj0CuFSMQbgC9IibL4-1">
          <mxGeometry x="1040" y="75" width="50" height="50" as="geometry" />
        </mxCell>
        <mxCell id="cUy3ryo8K3psTatHILnv-69" value="Pedido confirmado" style="points=[[0.145,0.145,0],[0.5,0,0],[0.855,0.145,0],[1,0.5,0],[0.855,0.855,0],[0.5,1,0],[0.145,0.855,0],[0,0.5,0]];shape=mxgraph.bpmn.event;html=1;verticalLabelPosition=bottom;labelBackgroundColor=#ffffff;verticalAlign=top;align=center;perimeter=ellipsePerimeter;outlineConnect=0;aspect=fixed;outline=catching;symbol=message;" vertex="1" parent="fopj0CuFSMQbgC9IibL4-1">
          <mxGeometry x="1763" y="75" width="50" height="50" as="geometry" />
        </mxCell>
        <mxCell id="cUy3ryo8K3psTatHILnv-71" style="edgeStyle=orthogonalEdgeStyle;rounded=0;orthogonalLoop=1;jettySize=auto;html=1;exitX=1;exitY=0.5;exitDx=0;exitDy=0;exitPerimeter=0;entryX=0;entryY=0.5;entryDx=0;entryDy=0;entryPerimeter=0;" edge="1" parent="fopj0CuFSMQbgC9IibL4-1" source="cUy3ryo8K3psTatHILnv-69" target="cUy3ryo8K3psTatHILnv-72">
          <mxGeometry relative="1" as="geometry">
            <mxPoint x="1953" y="100" as="targetPoint" />
          </mxGeometry>
        </mxCell>
        <mxCell id="cUy3ryo8K3psTatHILnv-72" value="" style="points=[[0.145,0.145,0],[0.5,0,0],[0.855,0.145,0],[1,0.5,0],[0.855,0.855,0],[0.5,1,0],[0.145,0.855,0],[0,0.5,0]];shape=mxgraph.bpmn.event;html=1;verticalLabelPosition=bottom;labelBackgroundColor=#ffffff;verticalAlign=top;align=center;perimeter=ellipsePerimeter;outlineConnect=0;aspect=fixed;outline=end;symbol=terminate;" vertex="1" parent="fopj0CuFSMQbgC9IibL4-1">
          <mxGeometry x="2013" y="75" width="50" height="50" as="geometry" />
        </mxCell>
        <mxCell id="cUy3ryo8K3psTatHILnv-79" value="Escolher assentos" style="points=[[0.25,0,0],[0.5,0,0],[0.75,0,0],[1,0.25,0],[1,0.5,0],[1,0.75,0],[0.75,1,0],[0.5,1,0],[0.25,1,0],[0,0.75,0],[0,0.5,0],[0,0.25,0]];shape=mxgraph.bpmn.task;whiteSpace=wrap;rectStyle=rounded;size=10;html=1;container=1;expand=0;collapsible=0;taskMarker=abstract;" vertex="1" parent="fopj0CuFSMQbgC9IibL4-1">
          <mxGeometry x="650" y="60" width="120" height="80" as="geometry" />
        </mxCell>
        <mxCell id="cUy3ryo8K3psTatHILnv-80" value="Sessão escolhida" style="points=[[0.145,0.145,0],[0.5,0,0],[0.855,0.145,0],[1,0.5,0],[0.855,0.855,0],[0.5,1,0],[0.145,0.855,0],[0,0.5,0]];shape=mxgraph.bpmn.event;html=1;verticalLabelPosition=bottom;labelBackgroundColor=#ffffff;verticalAlign=top;align=center;perimeter=ellipsePerimeter;outlineConnect=0;aspect=fixed;outline=throwing;symbol=message;" vertex="1" parent="fopj0CuFSMQbgC9IibL4-1">
          <mxGeometry x="410" y="75" width="50" height="50" as="geometry" />
        </mxCell>
        <mxCell id="cUy3ryo8K3psTatHILnv-81" style="edgeStyle=orthogonalEdgeStyle;rounded=0;orthogonalLoop=1;jettySize=auto;html=1;exitX=1;exitY=0.5;exitDx=0;exitDy=0;exitPerimeter=0;entryX=0;entryY=0.5;entryDx=0;entryDy=0;entryPerimeter=0;" edge="1" parent="fopj0CuFSMQbgC9IibL4-1" source="cUy3ryo8K3psTatHILnv-52" target="cUy3ryo8K3psTatHILnv-80">
          <mxGeometry relative="1" as="geometry" />
        </mxCell>
        <mxCell id="cUy3ryo8K3psTatHILnv-82" style="edgeStyle=orthogonalEdgeStyle;rounded=0;orthogonalLoop=1;jettySize=auto;html=1;exitX=1;exitY=0.5;exitDx=0;exitDy=0;exitPerimeter=0;entryX=0;entryY=0.5;entryDx=0;entryDy=0;entryPerimeter=0;" edge="1" parent="fopj0CuFSMQbgC9IibL4-1" source="cUy3ryo8K3psTatHILnv-80" target="cUy3ryo8K3psTatHILnv-88">
          <mxGeometry relative="1" as="geometry" />
        </mxCell>
        <mxCell id="cUy3ryo8K3psTatHILnv-88" value="Informações da &lt;br&gt;sessão recebidas" style="points=[[0.145,0.145,0],[0.5,0,0],[0.855,0.145,0],[1,0.5,0],[0.855,0.855,0],[0.5,1,0],[0.145,0.855,0],[0,0.5,0]];shape=mxgraph.bpmn.event;html=1;verticalLabelPosition=bottom;labelBackgroundColor=#ffffff;verticalAlign=top;align=center;perimeter=ellipsePerimeter;outlineConnect=0;aspect=fixed;outline=catching;symbol=message;" vertex="1" parent="fopj0CuFSMQbgC9IibL4-1">
          <mxGeometry x="540" y="75" width="50" height="50" as="geometry" />
        </mxCell>
        <mxCell id="cUy3ryo8K3psTatHILnv-89" style="edgeStyle=orthogonalEdgeStyle;rounded=0;orthogonalLoop=1;jettySize=auto;html=1;exitX=1;exitY=0.5;exitDx=0;exitDy=0;exitPerimeter=0;entryX=0;entryY=0.5;entryDx=0;entryDy=0;entryPerimeter=0;" edge="1" parent="fopj0CuFSMQbgC9IibL4-1" source="cUy3ryo8K3psTatHILnv-88" target="cUy3ryo8K3psTatHILnv-79">
          <mxGeometry relative="1" as="geometry" />
        </mxCell>
        <mxCell id="cUy3ryo8K3psTatHILnv-73" value="15 min" style="points=[[0.145,0.145,0],[0.5,0,0],[0.855,0.145,0],[1,0.5,0],[0.855,0.855,0],[0.5,1,0],[0.145,0.855,0],[0,0.5,0]];shape=mxgraph.bpmn.event;html=1;verticalLabelPosition=bottom;labelBackgroundColor=#ffffff;verticalAlign=top;align=center;perimeter=ellipsePerimeter;outlineConnect=0;aspect=fixed;outline=boundInt;symbol=timer;" vertex="1" parent="fopj0CuFSMQbgC9IibL4-1">
          <mxGeometry x="650" y="120" width="50" height="50" as="geometry" />
        </mxCell>
        <mxCell id="cUy3ryo8K3psTatHILnv-90" style="edgeStyle=orthogonalEdgeStyle;rounded=0;orthogonalLoop=1;jettySize=auto;html=1;exitX=0.5;exitY=1;exitDx=0;exitDy=0;exitPerimeter=0;entryX=0.5;entryY=1;entryDx=0;entryDy=0;entryPerimeter=0;" edge="1" parent="fopj0CuFSMQbgC9IibL4-1" source="cUy3ryo8K3psTatHILnv-73" target="cUy3ryo8K3psTatHILnv-52">
          <mxGeometry relative="1" as="geometry" />
        </mxCell>
        <mxCell id="cUy3ryo8K3psTatHILnv-92" style="edgeStyle=orthogonalEdgeStyle;rounded=0;orthogonalLoop=1;jettySize=auto;html=1;exitX=1;exitY=0.5;exitDx=0;exitDy=0;exitPerimeter=0;entryX=0;entryY=0.5;entryDx=0;entryDy=0;entryPerimeter=0;" edge="1" parent="fopj0CuFSMQbgC9IibL4-1" source="cUy3ryo8K3psTatHILnv-119" target="cUy3ryo8K3psTatHILnv-69">
          <mxGeometry relative="1" as="geometry">
            <mxPoint x="1440" y="100" as="sourcePoint" />
          </mxGeometry>
        </mxCell>
        <mxCell id="cUy3ryo8K3psTatHILnv-94" value="Pedido cancelado" style="points=[[0.145,0.145,0],[0.5,0,0],[0.855,0.145,0],[1,0.5,0],[0.855,0.855,0],[0.5,1,0],[0.145,0.855,0],[0,0.5,0]];shape=mxgraph.bpmn.event;html=1;verticalLabelPosition=bottom;labelBackgroundColor=#ffffff;verticalAlign=top;align=center;perimeter=ellipsePerimeter;outlineConnect=0;aspect=fixed;outline=catching;symbol=message;" vertex="1" parent="fopj0CuFSMQbgC9IibL4-1">
          <mxGeometry x="1763" y="200" width="50" height="50" as="geometry" />
        </mxCell>
        <mxCell id="cUy3ryo8K3psTatHILnv-119" value="" style="points=[[0.25,0.25,0],[0.5,0,0],[0.75,0.25,0],[1,0.5,0],[0.75,0.75,0],[0.5,1,0],[0.25,0.75,0],[0,0.5,0]];shape=mxgraph.bpmn.gateway2;html=1;verticalLabelPosition=bottom;labelBackgroundColor=#ffffff;verticalAlign=top;align=center;perimeter=rhombusPerimeter;outlineConnect=0;outline=catching;symbol=multiple;" vertex="1" parent="fopj0CuFSMQbgC9IibL4-1">
          <mxGeometry x="1290" y="75" width="50" height="50" as="geometry" />
        </mxCell>
        <mxCell id="cUy3ryo8K3psTatHILnv-122" style="edgeStyle=orthogonalEdgeStyle;rounded=0;orthogonalLoop=1;jettySize=auto;html=1;exitX=1;exitY=0.5;exitDx=0;exitDy=0;exitPerimeter=0;entryX=0;entryY=0.5;entryDx=0;entryDy=0;entryPerimeter=0;" edge="1" parent="fopj0CuFSMQbgC9IibL4-1" source="cUy3ryo8K3psTatHILnv-119" target="cUy3ryo8K3psTatHILnv-94">
          <mxGeometry relative="1" as="geometry">
            <Array as="points">
              <mxPoint x="1385" y="100" />
              <mxPoint x="1385" y="225" />
            </Array>
          </mxGeometry>
        </mxCell>
        <mxCell id="cUy3ryo8K3psTatHILnv-198" value="Pedido precisa &lt;br&gt;de revisão" style="points=[[0.145,0.145,0],[0.5,0,0],[0.855,0.145,0],[1,0.5,0],[0.855,0.855,0],[0.5,1,0],[0.145,0.855,0],[0,0.5,0]];shape=mxgraph.bpmn.event;html=1;verticalLabelPosition=bottom;labelBackgroundColor=#ffffff;verticalAlign=top;align=center;perimeter=ellipsePerimeter;outlineConnect=0;aspect=fixed;outline=catching;symbol=message;" vertex="1" parent="fopj0CuFSMQbgC9IibL4-1">
          <mxGeometry x="1360" y="350" width="50" height="50" as="geometry" />
        </mxCell>
        <mxCell id="cUy3ryo8K3psTatHILnv-224" style="edgeStyle=orthogonalEdgeStyle;rounded=0;orthogonalLoop=1;jettySize=auto;html=1;exitX=1;exitY=0.5;exitDx=0;exitDy=0;exitPerimeter=0;entryX=0.5;entryY=0;entryDx=0;entryDy=0;entryPerimeter=0;" edge="1" parent="fopj0CuFSMQbgC9IibL4-1" source="cUy3ryo8K3psTatHILnv-119" target="cUy3ryo8K3psTatHILnv-198">
          <mxGeometry relative="1" as="geometry">
            <Array as="points">
              <mxPoint x="1385" y="100" />
            </Array>
          </mxGeometry>
        </mxCell>
        <mxCell id="cUy3ryo8K3psTatHILnv-226" style="edgeStyle=orthogonalEdgeStyle;rounded=0;orthogonalLoop=1;jettySize=auto;html=1;exitX=1;exitY=0.5;exitDx=0;exitDy=0;exitPerimeter=0;entryX=0;entryY=0.5;entryDx=0;entryDy=0;entryPerimeter=0;" edge="1" parent="fopj0CuFSMQbgC9IibL4-1" source="cUy3ryo8K3psTatHILnv-94" target="cUy3ryo8K3psTatHILnv-72">
          <mxGeometry relative="1" as="geometry" />
        </mxCell>
        <mxCell id="cUy3ryo8K3psTatHILnv-231" style="edgeStyle=orthogonalEdgeStyle;rounded=0;orthogonalLoop=1;jettySize=auto;html=1;exitX=0;exitY=0.5;exitDx=0;exitDy=0;exitPerimeter=0;entryX=0.5;entryY=1;entryDx=0;entryDy=0;entryPerimeter=0;" edge="1" parent="fopj0CuFSMQbgC9IibL4-1" source="cUy3ryo8K3psTatHILnv-198" target="cUy3ryo8K3psTatHILnv-61">
          <mxGeometry relative="1" as="geometry" />
        </mxCell>
        <mxCell id="fopj0CuFSMQbgC9IibL4-3" value="Ingressos.com" style="text;strokeColor=none;fillColor=none;html=1;fontSize=24;fontStyle=1;verticalAlign=middle;align=center;" parent="1" vertex="1">
          <mxGeometry x="260" y="90" width="250" height="70" as="geometry" />
        </mxCell>
        <mxCell id="fopj0CuFSMQbgC9IibL4-4" value="- Comprar um ingresso&lt;div&gt;- Usar um ingresso&lt;/div&gt;&lt;div&gt;- Cancelar uma compra&lt;/div&gt;&lt;div&gt;- Substituir ingresso (mudar horário, filme, cinema, ...)&lt;br&gt;&lt;div&gt;- Adicionar uma sessão&lt;/div&gt;&lt;/div&gt;&lt;div&gt;- Assinar a versao premiun?&lt;/div&gt;&lt;div&gt;- Verificar onde um filme está passando?&lt;/div&gt;&lt;div&gt;- Comprar pipoca?&lt;/div&gt;&lt;div&gt;- Fila de espera para uma estreia?&lt;/div&gt;&lt;div&gt;- Cadastro?&lt;/div&gt;" style="text;html=1;align=left;verticalAlign=top;whiteSpace=wrap;rounded=0;" parent="1" vertex="1">
          <mxGeometry x="60" y="170" width="290" height="170" as="geometry" />
        </mxCell>
        <mxCell id="cUy3ryo8K3psTatHILnv-1" value="Ingressos.com" style="swimlane;html=1;startSize=20;fontStyle=0;collapsible=0;horizontal=0;swimlaneLine=1;swimlaneFillColor=#ffffff;strokeWidth=2;whiteSpace=wrap;" vertex="1" parent="1">
          <mxGeometry x="-1310" y="1110" width="3290" height="720" as="geometry" />
        </mxCell>
        <mxCell id="fopj0CuFSMQbgC9IibL4-12" value="Atualizar status do pedido" style="points=[[0.25,0,0],[0.5,0,0],[0.75,0,0],[1,0.25,0],[1,0.5,0],[1,0.75,0],[0.75,1,0],[0.5,1,0],[0.25,1,0],[0,0.75,0],[0,0.5,0],[0,0.25,0]];shape=mxgraph.bpmn.task;whiteSpace=wrap;rectStyle=rounded;size=10;html=1;container=1;expand=0;collapsible=0;taskMarker=service;" parent="cUy3ryo8K3psTatHILnv-1" vertex="1">
          <mxGeometry x="2030" y="300" width="120" height="80" as="geometry" />
        </mxCell>
        <mxCell id="fopj0CuFSMQbgC9IibL4-18" value="Processar pagamento" style="points=[[0.25,0,0],[0.5,0,0],[0.75,0,0],[1,0.25,0],[1,0.5,0],[1,0.75,0],[0.75,1,0],[0.5,1,0],[0.25,1,0],[0,0.75,0],[0,0.5,0],[0,0.25,0]];shape=mxgraph.bpmn.task;whiteSpace=wrap;rectStyle=rounded;size=10;html=1;container=1;expand=0;collapsible=0;taskMarker=service;" parent="cUy3ryo8K3psTatHILnv-1" vertex="1">
          <mxGeometry x="1220" y="300" width="120" height="80" as="geometry" />
        </mxCell>
        <mxCell id="fopj0CuFSMQbgC9IibL4-32" value="Pagamento pendente?" style="points=[[0.25,0.25,0],[0.5,0,0],[0.75,0.25,0],[1,0.5,0],[0.75,0.75,0],[0.5,1,0],[0.25,0.75,0],[0,0.5,0]];shape=mxgraph.bpmn.gateway2;html=1;verticalLabelPosition=bottom;labelBackgroundColor=#ffffff;verticalAlign=top;align=center;perimeter=rhombusPerimeter;outlineConnect=0;outline=none;symbol=none;gwType=exclusive;" parent="cUy3ryo8K3psTatHILnv-1" vertex="1">
          <mxGeometry x="1660" y="315" width="50" height="50" as="geometry" />
        </mxCell>
        <mxCell id="fopj0CuFSMQbgC9IibL4-34" style="edgeStyle=orthogonalEdgeStyle;rounded=0;orthogonalLoop=1;jettySize=auto;html=1;exitX=1;exitY=0.5;exitDx=0;exitDy=0;exitPerimeter=0;entryX=0;entryY=0.5;entryDx=0;entryDy=0;entryPerimeter=0;" parent="cUy3ryo8K3psTatHILnv-1" source="fopj0CuFSMQbgC9IibL4-18" target="fopj0CuFSMQbgC9IibL4-32" edge="1">
          <mxGeometry relative="1" as="geometry" />
        </mxCell>
        <mxCell id="fopj0CuFSMQbgC9IibL4-38" value="2 dias &lt;br&gt;(ou até o início da sessão)" style="points=[[0.145,0.145,0],[0.5,0,0],[0.855,0.145,0],[1,0.5,0],[0.855,0.855,0],[0.5,1,0],[0.145,0.855,0],[0,0.5,0]];shape=mxgraph.bpmn.event;html=1;verticalLabelPosition=bottom;labelBackgroundColor=#ffffff;verticalAlign=top;align=center;perimeter=ellipsePerimeter;outlineConnect=0;aspect=fixed;outline=boundInt;symbol=timer;" parent="cUy3ryo8K3psTatHILnv-1" vertex="1">
          <mxGeometry x="1430" y="315" width="50" height="50" as="geometry" />
        </mxCell>
        <mxCell id="fopj0CuFSMQbgC9IibL4-39" style="edgeStyle=orthogonalEdgeStyle;rounded=0;orthogonalLoop=1;jettySize=auto;html=1;exitX=1;exitY=0.5;exitDx=0;exitDy=0;exitPerimeter=0;entryX=0;entryY=0.5;entryDx=0;entryDy=0;entryPerimeter=0;" parent="cUy3ryo8K3psTatHILnv-1" source="fopj0CuFSMQbgC9IibL4-32" target="cUy3ryo8K3psTatHILnv-196" edge="1">
          <mxGeometry relative="1" as="geometry" />
        </mxCell>
        <mxCell id="fopj0CuFSMQbgC9IibL4-40" value="não" style="edgeLabel;html=1;align=center;verticalAlign=middle;resizable=0;points=[];" parent="fopj0CuFSMQbgC9IibL4-39" vertex="1" connectable="0">
          <mxGeometry x="-0.2" y="-4" relative="1" as="geometry">
            <mxPoint as="offset" />
          </mxGeometry>
        </mxCell>
        <mxCell id="fopj0CuFSMQbgC9IibL4-42" value="Verificar elegibilidade aos tipos de ingressos" style="points=[[0.25,0,0],[0.5,0,0],[0.75,0,0],[1,0.25,0],[1,0.5,0],[1,0.75,0],[0.75,1,0],[0.5,1,0],[0.25,1,0],[0,0.75,0],[0,0.5,0],[0,0.25,0]];shape=mxgraph.bpmn.task;whiteSpace=wrap;rectStyle=rounded;size=10;html=1;container=1;expand=0;collapsible=0;taskMarker=businessRule;" parent="cUy3ryo8K3psTatHILnv-1" vertex="1">
          <mxGeometry x="807" y="300" width="120" height="80" as="geometry" />
        </mxCell>
        <mxCell id="fopj0CuFSMQbgC9IibL4-47" value="Inelegibilidades?" style="points=[[0.25,0.25,0],[0.5,0,0],[0.75,0.25,0],[1,0.5,0],[0.75,0.75,0],[0.5,1,0],[0.25,0.75,0],[0,0.5,0]];shape=mxgraph.bpmn.gateway2;html=1;verticalLabelPosition=bottom;labelBackgroundColor=#ffffff;verticalAlign=top;align=center;perimeter=rhombusPerimeter;outlineConnect=0;outline=none;symbol=none;gwType=exclusive;" parent="cUy3ryo8K3psTatHILnv-1" vertex="1">
          <mxGeometry x="1030" y="315" width="50" height="50" as="geometry" />
        </mxCell>
        <mxCell id="fopj0CuFSMQbgC9IibL4-48" style="edgeStyle=orthogonalEdgeStyle;rounded=0;orthogonalLoop=1;jettySize=auto;html=1;exitX=1;exitY=0.5;exitDx=0;exitDy=0;exitPerimeter=0;entryX=0;entryY=0.5;entryDx=0;entryDy=0;entryPerimeter=0;" parent="cUy3ryo8K3psTatHILnv-1" source="fopj0CuFSMQbgC9IibL4-42" target="fopj0CuFSMQbgC9IibL4-47" edge="1">
          <mxGeometry relative="1" as="geometry" />
        </mxCell>
        <mxCell id="fopj0CuFSMQbgC9IibL4-49" style="edgeStyle=orthogonalEdgeStyle;rounded=0;orthogonalLoop=1;jettySize=auto;html=1;exitX=1;exitY=0.5;exitDx=0;exitDy=0;exitPerimeter=0;entryX=0;entryY=0.5;entryDx=0;entryDy=0;entryPerimeter=0;" parent="cUy3ryo8K3psTatHILnv-1" source="fopj0CuFSMQbgC9IibL4-47" target="fopj0CuFSMQbgC9IibL4-18" edge="1">
          <mxGeometry relative="1" as="geometry">
            <mxPoint x="1200" y="340" as="targetPoint" />
          </mxGeometry>
        </mxCell>
        <mxCell id="fopj0CuFSMQbgC9IibL4-50" value="não" style="edgeLabel;html=1;align=center;verticalAlign=middle;resizable=0;points=[];" parent="fopj0CuFSMQbgC9IibL4-49" vertex="1" connectable="0">
          <mxGeometry x="-0.6791" y="-2" relative="1" as="geometry">
            <mxPoint as="offset" />
          </mxGeometry>
        </mxCell>
        <mxCell id="cUy3ryo8K3psTatHILnv-55" value="Pedido recebido" style="points=[[0.145,0.145,0],[0.5,0,0],[0.855,0.145,0],[1,0.5,0],[0.855,0.855,0],[0.5,1,0],[0.145,0.855,0],[0,0.5,0]];shape=mxgraph.bpmn.event;html=1;verticalLabelPosition=bottom;labelBackgroundColor=#ffffff;verticalAlign=top;align=center;perimeter=ellipsePerimeter;outlineConnect=0;aspect=fixed;outline=catching;symbol=message;" vertex="1" parent="cUy3ryo8K3psTatHILnv-1">
          <mxGeometry x="620" y="120" width="50" height="50" as="geometry" />
        </mxCell>
        <mxCell id="cUy3ryo8K3psTatHILnv-74" value="Consultar assentos disponíveis na sessão" style="points=[[0.25,0,0],[0.5,0,0],[0.75,0,0],[1,0.25,0],[1,0.5,0],[1,0.75,0],[0.75,1,0],[0.5,1,0],[0.25,1,0],[0,0.75,0],[0,0.5,0],[0,0.25,0]];shape=mxgraph.bpmn.task;whiteSpace=wrap;rectStyle=rounded;size=10;html=1;container=1;expand=0;collapsible=0;taskMarker=abstract;" vertex="1" parent="cUy3ryo8K3psTatHILnv-1">
          <mxGeometry x="230" y="255" width="120" height="80" as="geometry" />
        </mxCell>
        <mxCell id="cUy3ryo8K3psTatHILnv-75" value="Requisição recebida" style="points=[[0.145,0.145,0],[0.5,0,0],[0.855,0.145,0],[1,0.5,0],[0.855,0.855,0],[0.5,1,0],[0.145,0.855,0],[0,0.5,0]];shape=mxgraph.bpmn.event;html=1;verticalLabelPosition=bottom;labelBackgroundColor=#ffffff;verticalAlign=top;align=center;perimeter=ellipsePerimeter;outlineConnect=0;aspect=fixed;outline=catching;symbol=message;" vertex="1" parent="cUy3ryo8K3psTatHILnv-1">
          <mxGeometry x="60" y="270" width="50" height="50" as="geometry" />
        </mxCell>
        <mxCell id="cUy3ryo8K3psTatHILnv-77" style="edgeStyle=orthogonalEdgeStyle;rounded=0;orthogonalLoop=1;jettySize=auto;html=1;exitX=1;exitY=0.5;exitDx=0;exitDy=0;exitPerimeter=0;entryX=0;entryY=0.5;entryDx=0;entryDy=0;entryPerimeter=0;" edge="1" parent="cUy3ryo8K3psTatHILnv-1" source="cUy3ryo8K3psTatHILnv-75" target="cUy3ryo8K3psTatHILnv-74">
          <mxGeometry relative="1" as="geometry" />
        </mxCell>
        <mxCell id="cUy3ryo8K3psTatHILnv-95" value="Registrar pedido" style="points=[[0.25,0,0],[0.5,0,0],[0.75,0,0],[1,0.25,0],[1,0.5,0],[1,0.75,0],[0.75,1,0],[0.5,1,0],[0.25,1,0],[0,0.75,0],[0,0.5,0],[0,0.25,0]];shape=mxgraph.bpmn.task;whiteSpace=wrap;rectStyle=rounded;size=10;html=1;container=1;expand=0;collapsible=0;taskMarker=service;" vertex="1" parent="cUy3ryo8K3psTatHILnv-1">
          <mxGeometry x="585" y="300" width="120" height="80" as="geometry" />
        </mxCell>
        <mxCell id="cUy3ryo8K3psTatHILnv-96" style="edgeStyle=orthogonalEdgeStyle;rounded=0;orthogonalLoop=1;jettySize=auto;html=1;exitX=0.5;exitY=1;exitDx=0;exitDy=0;exitPerimeter=0;entryX=0.5;entryY=0;entryDx=0;entryDy=0;entryPerimeter=0;" edge="1" parent="cUy3ryo8K3psTatHILnv-1" source="cUy3ryo8K3psTatHILnv-55" target="cUy3ryo8K3psTatHILnv-95">
          <mxGeometry relative="1" as="geometry" />
        </mxCell>
        <mxCell id="cUy3ryo8K3psTatHILnv-97" style="edgeStyle=orthogonalEdgeStyle;rounded=0;orthogonalLoop=1;jettySize=auto;html=1;exitX=1;exitY=0.5;exitDx=0;exitDy=0;exitPerimeter=0;entryX=0;entryY=0.5;entryDx=0;entryDy=0;entryPerimeter=0;" edge="1" parent="cUy3ryo8K3psTatHILnv-1" source="cUy3ryo8K3psTatHILnv-95" target="fopj0CuFSMQbgC9IibL4-42">
          <mxGeometry relative="1" as="geometry" />
        </mxCell>
        <mxCell id="cUy3ryo8K3psTatHILnv-106" value="Disponibilidade definida" style="points=[[0.145,0.145,0],[0.5,0,0],[0.855,0.145,0],[1,0.5,0],[0.855,0.855,0],[0.5,1,0],[0.145,0.855,0],[0,0.5,0]];shape=mxgraph.bpmn.event;html=1;verticalLabelPosition=bottom;labelBackgroundColor=#ffffff;verticalAlign=top;align=center;perimeter=ellipsePerimeter;outlineConnect=0;aspect=fixed;outline=throwing;symbol=message;" vertex="1" parent="cUy3ryo8K3psTatHILnv-1">
          <mxGeometry x="430" y="90" width="50" height="50" as="geometry" />
        </mxCell>
        <mxCell id="cUy3ryo8K3psTatHILnv-107" value="Informações da &lt;br&gt;sessão recebidas" style="points=[[0.145,0.145,0],[0.5,0,0],[0.855,0.145,0],[1,0.5,0],[0.855,0.855,0],[0.5,1,0],[0.145,0.855,0],[0,0.5,0]];shape=mxgraph.bpmn.event;html=1;verticalLabelPosition=bottom;labelBackgroundColor=#ffffff;verticalAlign=top;align=center;perimeter=ellipsePerimeter;outlineConnect=0;aspect=fixed;outline=catching;symbol=message;" vertex="1" parent="cUy3ryo8K3psTatHILnv-1">
          <mxGeometry x="430" y="270" width="50" height="50" as="geometry" />
        </mxCell>
        <mxCell id="cUy3ryo8K3psTatHILnv-109" style="edgeStyle=orthogonalEdgeStyle;rounded=0;orthogonalLoop=1;jettySize=auto;html=1;exitX=1;exitY=0.5;exitDx=0;exitDy=0;exitPerimeter=0;entryX=0;entryY=0.5;entryDx=0;entryDy=0;entryPerimeter=0;" edge="1" parent="cUy3ryo8K3psTatHILnv-1" source="cUy3ryo8K3psTatHILnv-74" target="cUy3ryo8K3psTatHILnv-107">
          <mxGeometry relative="1" as="geometry" />
        </mxCell>
        <mxCell id="cUy3ryo8K3psTatHILnv-110" style="edgeStyle=orthogonalEdgeStyle;rounded=0;orthogonalLoop=1;jettySize=auto;html=1;exitX=0.5;exitY=0;exitDx=0;exitDy=0;exitPerimeter=0;entryX=0.5;entryY=1;entryDx=0;entryDy=0;entryPerimeter=0;" edge="1" parent="cUy3ryo8K3psTatHILnv-1" source="cUy3ryo8K3psTatHILnv-107" target="cUy3ryo8K3psTatHILnv-106">
          <mxGeometry relative="1" as="geometry" />
        </mxCell>
        <mxCell id="cUy3ryo8K3psTatHILnv-111" value="" style="points=[[0.25,0.25,0],[0.5,0,0],[0.75,0.25,0],[1,0.5,0],[0.75,0.75,0],[0.5,1,0],[0.25,0.75,0],[0,0.5,0]];shape=mxgraph.bpmn.gateway2;html=1;verticalLabelPosition=bottom;labelBackgroundColor=#ffffff;verticalAlign=top;align=center;perimeter=rhombusPerimeter;outlineConnect=0;outline=none;symbol=none;gwType=parallel;" vertex="1" parent="cUy3ryo8K3psTatHILnv-1">
          <mxGeometry x="1030" y="190" width="50" height="50" as="geometry" />
        </mxCell>
        <mxCell id="cUy3ryo8K3psTatHILnv-112" style="edgeStyle=orthogonalEdgeStyle;rounded=0;orthogonalLoop=1;jettySize=auto;html=1;exitX=0.5;exitY=0;exitDx=0;exitDy=0;exitPerimeter=0;entryX=0.5;entryY=1;entryDx=0;entryDy=0;entryPerimeter=0;" edge="1" parent="cUy3ryo8K3psTatHILnv-1" source="fopj0CuFSMQbgC9IibL4-47" target="cUy3ryo8K3psTatHILnv-111">
          <mxGeometry relative="1" as="geometry" />
        </mxCell>
        <mxCell id="cUy3ryo8K3psTatHILnv-113" value="sim" style="edgeLabel;html=1;align=center;verticalAlign=middle;resizable=0;points=[];" vertex="1" connectable="0" parent="cUy3ryo8K3psTatHILnv-112">
          <mxGeometry x="-0.3255" y="-5" relative="1" as="geometry">
            <mxPoint y="-1" as="offset" />
          </mxGeometry>
        </mxCell>
        <mxCell id="cUy3ryo8K3psTatHILnv-114" value="Aviso de inegebilidade" style="points=[[0.145,0.145,0],[0.5,0,0],[0.855,0.145,0],[1,0.5,0],[0.855,0.855,0],[0.5,1,0],[0.145,0.855,0],[0,0.5,0]];shape=mxgraph.bpmn.event;html=1;verticalLabelPosition=bottom;labelBackgroundColor=#ffffff;verticalAlign=top;align=center;perimeter=ellipsePerimeter;outlineConnect=0;aspect=fixed;outline=throwing;symbol=message;" vertex="1" parent="cUy3ryo8K3psTatHILnv-1">
          <mxGeometry x="1030" y="40" width="50" height="50" as="geometry" />
        </mxCell>
        <mxCell id="cUy3ryo8K3psTatHILnv-117" style="edgeStyle=orthogonalEdgeStyle;rounded=0;orthogonalLoop=1;jettySize=auto;html=1;exitX=0.5;exitY=0;exitDx=0;exitDy=0;exitPerimeter=0;entryX=0.5;entryY=1;entryDx=0;entryDy=0;entryPerimeter=0;" edge="1" parent="cUy3ryo8K3psTatHILnv-1" source="cUy3ryo8K3psTatHILnv-111" target="cUy3ryo8K3psTatHILnv-114">
          <mxGeometry relative="1" as="geometry" />
        </mxCell>
        <mxCell id="fopj0CuFSMQbgC9IibL4-24" value="Atualizar status do pedido" style="points=[[0.25,0,0],[0.5,0,0],[0.75,0,0],[1,0.25,0],[1,0.5,0],[1,0.75,0],[0.75,1,0],[0.5,1,0],[0.25,1,0],[0,0.75,0],[0,0.5,0],[0,0.25,0]];shape=mxgraph.bpmn.task;whiteSpace=wrap;rectStyle=rounded;size=10;html=1;container=1;expand=0;collapsible=0;taskMarker=service;" parent="cUy3ryo8K3psTatHILnv-1" vertex="1">
          <mxGeometry x="1310" y="175" width="120" height="80" as="geometry" />
        </mxCell>
        <mxCell id="fopj0CuFSMQbgC9IibL4-22" value="Pedido recusado" style="points=[[0.145,0.145,0],[0.5,0,0],[0.855,0.145,0],[1,0.5,0],[0.855,0.855,0],[0.5,1,0],[0.145,0.855,0],[0,0.5,0]];shape=mxgraph.bpmn.event;html=1;verticalLabelPosition=bottom;labelBackgroundColor=#ffffff;verticalAlign=top;align=center;perimeter=ellipsePerimeter;outlineConnect=0;aspect=fixed;outline=end;symbol=terminate;" parent="cUy3ryo8K3psTatHILnv-1" vertex="1">
          <mxGeometry x="1345" y="40" width="50" height="50" as="geometry" />
        </mxCell>
        <mxCell id="fopj0CuFSMQbgC9IibL4-26" style="edgeStyle=orthogonalEdgeStyle;rounded=0;orthogonalLoop=1;jettySize=auto;html=1;exitX=0.5;exitY=0;exitDx=0;exitDy=0;exitPerimeter=0;entryX=0.5;entryY=1;entryDx=0;entryDy=0;entryPerimeter=0;" parent="cUy3ryo8K3psTatHILnv-1" source="fopj0CuFSMQbgC9IibL4-24" target="fopj0CuFSMQbgC9IibL4-22" edge="1">
          <mxGeometry relative="1" as="geometry" />
        </mxCell>
        <mxCell id="cUy3ryo8K3psTatHILnv-181" value="Pedido cancelado por&lt;br&gt;falta de pagamento" style="points=[[0.145,0.145,0],[0.5,0,0],[0.855,0.145,0],[1,0.5,0],[0.855,0.855,0],[0.5,1,0],[0.145,0.855,0],[0,0.5,0]];shape=mxgraph.bpmn.event;html=1;verticalLabelPosition=bottom;labelBackgroundColor=#ffffff;verticalAlign=top;align=center;perimeter=ellipsePerimeter;outlineConnect=0;aspect=fixed;outline=throwing;symbol=message;" vertex="1" parent="cUy3ryo8K3psTatHILnv-1">
          <mxGeometry x="1660" y="40" width="50" height="50" as="geometry" />
        </mxCell>
        <mxCell id="cUy3ryo8K3psTatHILnv-185" style="edgeStyle=orthogonalEdgeStyle;rounded=0;orthogonalLoop=1;jettySize=auto;html=1;exitX=1;exitY=0.5;exitDx=0;exitDy=0;exitPerimeter=0;entryX=0;entryY=0.5;entryDx=0;entryDy=0;entryPerimeter=0;" edge="1" parent="cUy3ryo8K3psTatHILnv-1" source="cUy3ryo8K3psTatHILnv-111" target="fopj0CuFSMQbgC9IibL4-24">
          <mxGeometry relative="1" as="geometry" />
        </mxCell>
        <mxCell id="cUy3ryo8K3psTatHILnv-186" style="edgeStyle=orthogonalEdgeStyle;rounded=0;orthogonalLoop=1;jettySize=auto;html=1;exitX=0.5;exitY=0;exitDx=0;exitDy=0;exitPerimeter=0;entryX=0.5;entryY=1;entryDx=0;entryDy=0;entryPerimeter=0;" edge="1" parent="cUy3ryo8K3psTatHILnv-1" source="fopj0CuFSMQbgC9IibL4-32" target="cUy3ryo8K3psTatHILnv-187">
          <mxGeometry relative="1" as="geometry" />
        </mxCell>
        <mxCell id="cUy3ryo8K3psTatHILnv-187" value="" style="points=[[0.25,0.25,0],[0.5,0,0],[0.75,0.25,0],[1,0.5,0],[0.75,0.75,0],[0.5,1,0],[0.25,0.75,0],[0,0.5,0]];shape=mxgraph.bpmn.gateway2;html=1;verticalLabelPosition=bottom;labelBackgroundColor=#ffffff;verticalAlign=top;align=center;perimeter=rhombusPerimeter;outlineConnect=0;outline=none;symbol=none;gwType=parallel;" vertex="1" parent="cUy3ryo8K3psTatHILnv-1">
          <mxGeometry x="1660" y="190" width="50" height="50" as="geometry" />
        </mxCell>
        <mxCell id="cUy3ryo8K3psTatHILnv-188" style="edgeStyle=orthogonalEdgeStyle;rounded=0;orthogonalLoop=1;jettySize=auto;html=1;exitX=0.5;exitY=0;exitDx=0;exitDy=0;exitPerimeter=0;entryX=0.5;entryY=1;entryDx=0;entryDy=0;entryPerimeter=0;" edge="1" parent="cUy3ryo8K3psTatHILnv-1" source="cUy3ryo8K3psTatHILnv-187" target="cUy3ryo8K3psTatHILnv-181">
          <mxGeometry relative="1" as="geometry" />
        </mxCell>
        <mxCell id="cUy3ryo8K3psTatHILnv-189" style="edgeStyle=orthogonalEdgeStyle;rounded=0;orthogonalLoop=1;jettySize=auto;html=1;exitX=0;exitY=0.5;exitDx=0;exitDy=0;exitPerimeter=0;entryX=1;entryY=0.5;entryDx=0;entryDy=0;entryPerimeter=0;" edge="1" parent="cUy3ryo8K3psTatHILnv-1" source="cUy3ryo8K3psTatHILnv-187" target="fopj0CuFSMQbgC9IibL4-24">
          <mxGeometry relative="1" as="geometry" />
        </mxCell>
        <mxCell id="cUy3ryo8K3psTatHILnv-195" style="edgeStyle=orthogonalEdgeStyle;rounded=0;orthogonalLoop=1;jettySize=auto;html=1;entryX=0;entryY=0.5;entryDx=0;entryDy=0;entryPerimeter=0;exitX=1;exitY=0.5;exitDx=0;exitDy=0;exitPerimeter=0;" edge="1" parent="cUy3ryo8K3psTatHILnv-1" source="cUy3ryo8K3psTatHILnv-196" target="fopj0CuFSMQbgC9IibL4-12">
          <mxGeometry relative="1" as="geometry">
            <mxPoint x="1900" y="340" as="sourcePoint" />
          </mxGeometry>
        </mxCell>
        <mxCell id="cUy3ryo8K3psTatHILnv-196" value="" style="points=[[0.25,0.25,0],[0.5,0,0],[0.75,0.25,0],[1,0.5,0],[0.75,0.75,0],[0.5,1,0],[0.25,0.75,0],[0,0.5,0]];shape=mxgraph.bpmn.gateway2;html=1;verticalLabelPosition=bottom;labelBackgroundColor=#ffffff;verticalAlign=top;align=center;perimeter=rhombusPerimeter;outlineConnect=0;outline=none;symbol=none;gwType=parallel;" vertex="1" parent="cUy3ryo8K3psTatHILnv-1">
          <mxGeometry x="1840" y="315" width="50" height="50" as="geometry" />
        </mxCell>
        <mxCell id="cUy3ryo8K3psTatHILnv-233" value="Confirmação de reserva&lt;br&gt;de assentos" style="points=[[0.145,0.145,0],[0.5,0,0],[0.855,0.145,0],[1,0.5,0],[0.855,0.855,0],[0.5,1,0],[0.145,0.855,0],[0,0.5,0]];shape=mxgraph.bpmn.event;html=1;verticalLabelPosition=bottom;labelBackgroundColor=#ffffff;verticalAlign=top;align=center;perimeter=ellipsePerimeter;outlineConnect=0;aspect=fixed;outline=throwing;symbol=message;" vertex="1" parent="cUy3ryo8K3psTatHILnv-1">
          <mxGeometry x="1840" y="500" width="50" height="50" as="geometry" />
        </mxCell>
        <mxCell id="cUy3ryo8K3psTatHILnv-234" style="edgeStyle=orthogonalEdgeStyle;rounded=0;orthogonalLoop=1;jettySize=auto;html=1;exitX=0.5;exitY=1;exitDx=0;exitDy=0;exitPerimeter=0;entryX=0.5;entryY=0;entryDx=0;entryDy=0;entryPerimeter=0;" edge="1" parent="cUy3ryo8K3psTatHILnv-1" source="cUy3ryo8K3psTatHILnv-196" target="cUy3ryo8K3psTatHILnv-233">
          <mxGeometry relative="1" as="geometry" />
        </mxCell>
        <mxCell id="cUy3ryo8K3psTatHILnv-239" value="Confirmação de reserva&lt;br&gt;de assentos" style="points=[[0.145,0.145,0],[0.5,0,0],[0.855,0.145,0],[1,0.5,0],[0.855,0.855,0],[0.5,1,0],[0.145,0.855,0],[0,0.5,0]];shape=mxgraph.bpmn.event;html=1;verticalLabelPosition=bottom;labelBackgroundColor=#ffffff;verticalAlign=top;align=center;perimeter=ellipsePerimeter;outlineConnect=0;aspect=fixed;outline=throwing;symbol=message;" vertex="1" parent="cUy3ryo8K3psTatHILnv-1">
          <mxGeometry x="2065" y="59" width="50" height="50" as="geometry" />
        </mxCell>
        <mxCell id="cUy3ryo8K3psTatHILnv-326" style="edgeStyle=orthogonalEdgeStyle;rounded=0;orthogonalLoop=1;jettySize=auto;html=1;exitX=0.5;exitY=0;exitDx=0;exitDy=0;exitPerimeter=0;entryX=0.5;entryY=1;entryDx=0;entryDy=0;entryPerimeter=0;" edge="1" parent="cUy3ryo8K3psTatHILnv-1" source="fopj0CuFSMQbgC9IibL4-12" target="cUy3ryo8K3psTatHILnv-239">
          <mxGeometry relative="1" as="geometry" />
        </mxCell>
        <mxCell id="cUy3ryo8K3psTatHILnv-49" value="Cinema" style="swimlane;html=1;startSize=20;fontStyle=0;collapsible=0;horizontal=0;swimlaneLine=1;swimlaneFillColor=#ffffff;strokeWidth=2;whiteSpace=wrap;" vertex="1" parent="1">
          <mxGeometry x="-1310" y="1860" width="3290" height="720" as="geometry" />
        </mxCell>
        <mxCell id="cUy3ryo8K3psTatHILnv-98" value="Consultar disponibilidade de assentos na sessão" style="points=[[0.25,0,0],[0.5,0,0],[0.75,0,0],[1,0.25,0],[1,0.5,0],[1,0.75,0],[0.75,1,0],[0.5,1,0],[0.25,1,0],[0,0.75,0],[0,0.5,0],[0,0.25,0]];shape=mxgraph.bpmn.task;whiteSpace=wrap;rectStyle=rounded;size=10;html=1;container=1;expand=0;collapsible=0;taskMarker=abstract;" vertex="1" parent="cUy3ryo8K3psTatHILnv-49">
          <mxGeometry x="250" y="60" width="120" height="80" as="geometry" />
        </mxCell>
        <mxCell id="cUy3ryo8K3psTatHILnv-99" value="Notificar reserva para outras empresas" style="points=[[0.25,0,0],[0.5,0,0],[0.75,0,0],[1,0.25,0],[1,0.5,0],[1,0.75,0],[0.75,1,0],[0.5,1,0],[0.25,1,0],[0,0.75,0],[0,0.5,0],[0,0.25,0]];shape=mxgraph.bpmn.task;whiteSpace=wrap;rectStyle=rounded;size=10;html=1;container=1;expand=0;collapsible=0;taskMarker=abstract;" vertex="1" parent="cUy3ryo8K3psTatHILnv-49">
          <mxGeometry x="450" y="60" width="120" height="80" as="geometry" />
        </mxCell>
        <mxCell id="cUy3ryo8K3psTatHILnv-101" value="Requisição de assentos &lt;br&gt;disponíveis na sessão&lt;br&gt;recebida" style="points=[[0.145,0.145,0],[0.5,0,0],[0.855,0.145,0],[1,0.5,0],[0.855,0.855,0],[0.5,1,0],[0.145,0.855,0],[0,0.5,0]];shape=mxgraph.bpmn.event;html=1;verticalLabelPosition=bottom;labelBackgroundColor=#ffffff;verticalAlign=top;align=center;perimeter=ellipsePerimeter;outlineConnect=0;aspect=fixed;outline=catching;symbol=message;" vertex="1" parent="cUy3ryo8K3psTatHILnv-49">
          <mxGeometry x="80" y="75" width="50" height="50" as="geometry" />
        </mxCell>
        <mxCell id="cUy3ryo8K3psTatHILnv-102" style="edgeStyle=orthogonalEdgeStyle;rounded=0;orthogonalLoop=1;jettySize=auto;html=1;exitX=1;exitY=0.5;exitDx=0;exitDy=0;exitPerimeter=0;entryX=0;entryY=0.5;entryDx=0;entryDy=0;entryPerimeter=0;" edge="1" parent="cUy3ryo8K3psTatHILnv-49" source="cUy3ryo8K3psTatHILnv-101" target="cUy3ryo8K3psTatHILnv-98">
          <mxGeometry relative="1" as="geometry" />
        </mxCell>
        <mxCell id="cUy3ryo8K3psTatHILnv-103" style="edgeStyle=orthogonalEdgeStyle;rounded=0;orthogonalLoop=1;jettySize=auto;html=1;exitX=1;exitY=0.5;exitDx=0;exitDy=0;exitPerimeter=0;entryX=0;entryY=0.5;entryDx=0;entryDy=0;entryPerimeter=0;" edge="1" parent="cUy3ryo8K3psTatHILnv-49" source="cUy3ryo8K3psTatHILnv-98" target="cUy3ryo8K3psTatHILnv-99">
          <mxGeometry relative="1" as="geometry" />
        </mxCell>
        <mxCell id="cUy3ryo8K3psTatHILnv-104" value="Disponibilidade definida" style="points=[[0.145,0.145,0],[0.5,0,0],[0.855,0.145,0],[1,0.5,0],[0.855,0.855,0],[0.5,1,0],[0.145,0.855,0],[0,0.5,0]];shape=mxgraph.bpmn.event;html=1;verticalLabelPosition=bottom;labelBackgroundColor=#ffffff;verticalAlign=top;align=center;perimeter=ellipsePerimeter;outlineConnect=0;aspect=fixed;outline=throwing;symbol=message;" vertex="1" parent="cUy3ryo8K3psTatHILnv-49">
          <mxGeometry x="630" y="75" width="50" height="50" as="geometry" />
        </mxCell>
        <mxCell id="cUy3ryo8K3psTatHILnv-105" style="edgeStyle=orthogonalEdgeStyle;rounded=0;orthogonalLoop=1;jettySize=auto;html=1;exitX=1;exitY=0.5;exitDx=0;exitDy=0;exitPerimeter=0;entryX=0;entryY=0.5;entryDx=0;entryDy=0;entryPerimeter=0;" edge="1" parent="cUy3ryo8K3psTatHILnv-49" source="cUy3ryo8K3psTatHILnv-99" target="cUy3ryo8K3psTatHILnv-104">
          <mxGeometry relative="1" as="geometry" />
        </mxCell>
        <mxCell id="cUy3ryo8K3psTatHILnv-191" value="Notificar confirmação de reserva para outras empresas" style="points=[[0.25,0,0],[0.5,0,0],[0.75,0,0],[1,0.25,0],[1,0.5,0],[1,0.75,0],[0.75,1,0],[0.5,1,0],[0.25,1,0],[0,0.75,0],[0,0.5,0],[0,0.25,0]];shape=mxgraph.bpmn.task;whiteSpace=wrap;rectStyle=rounded;size=10;html=1;container=1;expand=0;collapsible=0;taskMarker=abstract;" vertex="1" parent="cUy3ryo8K3psTatHILnv-49">
          <mxGeometry x="2260" y="50" width="120" height="80" as="geometry" />
        </mxCell>
        <mxCell id="cUy3ryo8K3psTatHILnv-192" value="Confirmação de reserva &lt;br&gt;de assentos recebida" style="points=[[0.145,0.145,0],[0.5,0,0],[0.855,0.145,0],[1,0.5,0],[0.855,0.855,0],[0.5,1,0],[0.145,0.855,0],[0,0.5,0]];shape=mxgraph.bpmn.event;html=1;verticalLabelPosition=bottom;labelBackgroundColor=#ffffff;verticalAlign=top;align=center;perimeter=ellipsePerimeter;outlineConnect=0;aspect=fixed;outline=catching;symbol=message;" vertex="1" parent="cUy3ryo8K3psTatHILnv-49">
          <mxGeometry x="1840" y="65" width="50" height="50" as="geometry" />
        </mxCell>
        <mxCell id="cUy3ryo8K3psTatHILnv-236" value="Registrar reserva" style="points=[[0.25,0,0],[0.5,0,0],[0.75,0,0],[1,0.25,0],[1,0.5,0],[1,0.75,0],[0.75,1,0],[0.5,1,0],[0.25,1,0],[0,0.75,0],[0,0.5,0],[0,0.25,0]];shape=mxgraph.bpmn.task;whiteSpace=wrap;rectStyle=rounded;size=10;html=1;container=1;expand=0;collapsible=0;taskMarker=service;" vertex="1" parent="cUy3ryo8K3psTatHILnv-49">
          <mxGeometry x="2030" y="50" width="120" height="80" as="geometry" />
        </mxCell>
        <mxCell id="cUy3ryo8K3psTatHILnv-237" style="edgeStyle=orthogonalEdgeStyle;rounded=0;orthogonalLoop=1;jettySize=auto;html=1;exitX=1;exitY=0.5;exitDx=0;exitDy=0;exitPerimeter=0;entryX=0;entryY=0.5;entryDx=0;entryDy=0;entryPerimeter=0;" edge="1" parent="cUy3ryo8K3psTatHILnv-49" source="cUy3ryo8K3psTatHILnv-192" target="cUy3ryo8K3psTatHILnv-236">
          <mxGeometry relative="1" as="geometry" />
        </mxCell>
        <mxCell id="cUy3ryo8K3psTatHILnv-238" style="edgeStyle=orthogonalEdgeStyle;rounded=0;orthogonalLoop=1;jettySize=auto;html=1;exitX=1;exitY=0.5;exitDx=0;exitDy=0;exitPerimeter=0;entryX=0;entryY=0.5;entryDx=0;entryDy=0;entryPerimeter=0;" edge="1" parent="cUy3ryo8K3psTatHILnv-49" source="cUy3ryo8K3psTatHILnv-236" target="cUy3ryo8K3psTatHILnv-191">
          <mxGeometry relative="1" as="geometry" />
        </mxCell>
        <mxCell id="cUy3ryo8K3psTatHILnv-50" value="Autorizadora de crédito" style="swimlane;html=1;startSize=20;fontStyle=0;collapsible=0;horizontal=0;swimlaneLine=1;swimlaneFillColor=#ffffff;strokeWidth=2;whiteSpace=wrap;" vertex="1" parent="1">
          <mxGeometry x="-1310" y="2600" width="3290" height="720" as="geometry" />
        </mxCell>
        <mxCell id="cUy3ryo8K3psTatHILnv-56" value="" style="shape=image;verticalLabelPosition=bottom;labelBackgroundColor=default;verticalAlign=top;aspect=fixed;imageAspect=0;image=data:image/png,iVBORw0KGgoAAAANSUhEUgAAAqgAAACkCAYAAABb5dwOAAAABHNCSVQICAgIfAhkiAAAABl0RVh0U29mdHdhcmUAZ25vbWUtc2NyZWVuc2hvdO8Dvz4AAAAtdEVYdENyZWF0aW9uIFRpbWUAVHVlIDAxIEFwciAyMDI1IDAxOjQ3OjA1IFBNIC0wM7/YY8oAACAASURBVHic7N13VFRHG8DhH9voSBGkCNK7vcfYjb1rosYSG6JRY6+JSYyJvcQae+9Ro7Ebe+y90HtRVAQBEXBhy/cHWIPGGPKx6jzncI7rcmfee+e9s+/eO7voabVaLYIgCIIgCIKgIyTFHYAgCIIgCIIgPE8UqIIgCIIgCIJOEQWqIAiCIAiCoFNEgSoIgiAIgiDoFFGgCoIgCIIgCDpFFKiCIAiCIAiCTpH92wbcnV2KJhJBEHRaVFxscYcgCIIgfCDEFVRBEARBEARBp4gCVRCENyLulgiCIAj/L//6Fv/zxC1AQXj/iMJUEARB+H8TV1AFQRAEQRAEnVI8Baomm/sJt0jPfeUvkHrzEDt2nCL28f83NEEQBEEQBKF4Fekt/idyb65h/MyD3M3Vgp4cQ0tHKrToRa9m7hihInR+JzrMCafSxD9Z/0Wpvzaguc++KYOZeLMhcxp/jLjB+JLsW1y9EI3Uswbl7PWLOxpBEARBEIQi9R9cQVURdWgLe07eIMXAHjsLFTHHNjFnUG9mnFECehi516N99yH0aVSy8CZygwiKzEPm5oevYdFH+K7LPDiJnj37MevIQzTFHYwgCIIgCEIR+w+uoGYSHByHSupLh++nE1BGxYkxdQnYco+ExMegeUziXRWmZcrjZydFmXCU1Yu3ciY2E337anQePog6mTcJT9PDqoE/paUPCdqxij1hBtT4oi/1HKTP9aUm+ewaFqw+Sqy6DI16tcDk7J/k1A6kW3VDEo6uZOnWM8Q91MeuehdmDGlYaH8NHKTwKIL9q1bx+/k4MhUOVG4fSGBLD4yUCRxbuYRfT8eQqe9Atc+HMbihQ6Ht1JOdYvXqG9g3r0P2nhXsCXqMc8fRjKmVxpaFKzkarcW702hGtnJFBjyK2Mealbu4EJ+Jwr4Kbfv3p4WHEZp7JwraqUvOvpXsuf4Qm8aDGdezHI+OLGHehivk6MlJPb2Q6fK2jO1coeiHURAEQRAEoZgUfYGqDCEoXInEygNPWymatPOcvJqKxqA81SuZQMZB1sxczOmqpenTRcaMnv1Z99CHRvWcyQo+y43UgVSODCFWJaNiWVcilw+iz+RzGDX7kU+tpS90lXlmCj17rSBSaouzVRBTem9DkqvPJ96D6HBuGn0C1/LQ5xPqumQRcvYG9DMutL8GFldZ0OML5oWUoErDSsiC97JwWCh6Lpupub0XX655iPcndXHOCuHc9VQGf5RYeNwRG/h5yUUsfl/OQ40p8pTbnAq7R7B5LDFKE1R37nAmypKPGk+mSvA8evecS4hZVRpUlhG8dz4jw/Rw2TUMhz+ftLOMDHUJ9NNukXr5Md6Nl+F8/iCnQ1LRyK3IS7pBfEa7Ih9CQRAEQRCE4lTkBar6bhCh9zRo5Ef5qU0jcpLiScaDDpOm8oWHFOWZICKUUpx8/TBKPM6lBBUl6ndm9I9dKGMAkMv5HeE8ljpgFvEDAzZewqLjLJb+2AonxfMdRbN59noi9cozcOMGhvrfY1nnZky75o6vv4yEnRdJVJlTr8tYJnUpgz6gCvu5kP7UxC6bxpJrMhpO+5UFrdUcHH+Fc7fyUCkTOH8hAZV5fTqN+4nOZfLXexbejpJz28N4rMlEW2kmv8+sybGetfnhbBiPWi1l/7iSrG3Tll+SlShVMWyatphr0oZM2fYLLdUH+ObyWW7n5qFCSejN/HY0Faaza05jrgyqyqijKvLUBtQd/hUf/RbALoeeLNo+EDdp4eMgCIIgCILwriryNaiPg4KIUkuwKVuXms4KHmVqKflxAEM6uKOPmuSgMO5pjfDy98CoTB3q+RqT9sd4WjTqyfwzKWg0yYSE3kEtS+HPLYdJtv+MiZNeKk4BTdJxjl5XYlCzM93LGQM5PMrSILH2wd9OH6faDfAxfsDhcU1p0nMuZ1M0yArrT32bIwevkKPJ5M9JjanoX4eRx01pPOIHelVw5eMGvhg/+INvmjSi99wzpGoovB3NfUJC76IxrsWX37TGUe82Sfc0SKxbMWR4XUpq73AvRY3U2R2X5CMcupKDJvNPfmxcjgq1h3PCtAnDJvXBX/JcOxPaUkZ6h6Q7KiSWLrjbSFEnhhCRBuaePpQWxakgCIIgCO+hIi5Qc4m6GUYWJlTt8R0TF8zkCx897v2xjt1xakBJSHAkaqk7vr4GYFiJoVv2sHREAyzvnmDh9K3EZQcTFKFC5tudgY1Lorl1gG3HM/7SU15iAnfUUqzLOGMqgYxTG9kToULh5Y+3PhhWHsbGvcsZ1sCKu8cXMHNLbOH9KROIT1Ijc+/MzPVb2H70Apcv7mPBgBpYSQypNHwzu1YMp77VXU7On8HWWPUr4w6OVCHzqkH1khI06cGE3FZjUL4G1cxAFRdEeLoeJb39KXU7jiS1DPcus1m7ZSeHLl7j3P5FBNawQqJ81k4Nawk8CiIoVoXMwx9fOeSEhhGnkuHu7Y28aAdPEARBEARBJxRtgarJICQ4AbXUE/9yBiBzo5y/OXp5kVy7ngWqaILDH6Fn7YOf3X1O/7qDs/FaHCv7Y6fQQ9/CAsPYIMIz9SjpU4POvTviLrnHgeVbiFG/2JWevj5yPTXJF3exfukE+o3aSqJahpO/H6Z3T7F9x1kStE5U8rdDoaePufnjQvszlRhgqK+HOiWe+BwF+spbXNi5gSPRudw9tY3fzsSjdayMn50CPX1zLIzvvTLusEw9rL39sZdCXnAQUXkynH39MAGygkOIUcnx9PdBbmCIvp6alLg4chT65N66wK4Nh4lRgSr6xXZyw28SkSPFwdcXc4mK2zEJ5KDHo+hjbDscziu/SlYQBEEQBOEdVbRrUPOiiYzToHCuRCVbKaCHl58nBnoXuRUTjyo7mqjbWkw+qoQP4cyZNZrNd9WAHsYuTRk1si0mkcO4pTWhZmVfjMq50P3jjUw8s5f9Ub0Z6PUsXIV/C9qU28zcq5uZEudG846f4Lj5MuUqeKANm8ScUZvIb9oY56ZjGNEyhY1N/tqftYGUjr3qsf/HI8zo1IgZgMyqPhN2tEO2dxZjN90lvxkXmowZRRuLSH4qNO7h3C6IW46aW1FxpEusaVDRFRm5xETEkKvvQYXy5hh4fMYX9fYx5ch0Pm84HZBhWf87fu0MOVFRz7Wj4UFUNMl6FjSu5IUCGaW8PLGSBhG04TsWSdfRplGRjqAgCIIgCEKx09Nqtdp/08Dzf6c7Ki72H22ryU4mOiKRTEUpPLxKY/pP11Q+vk9EWDL6zl6UMX++1taQnRxNZGImilLueJY2Q/o3/SlTogmPS0NrUooyro6YK/L/4lVydASJDxXYenjhYCYtmrjzeyQ1Ooy4NC0mpZxxcTRH8QZbgYr0uCCi001x9XXD4s02EoS39m/OcUEQBEF4G8VaoAqCoPvEOS4IgiD8v/0Hf0lKEARBEARBEN6eKFAFQRAEQRAEnVKkt/gFQRAEQRCE90NxLusSV1AFQRAEQRAEnVKkXzOlSx+gUKlUeLt7gI7FpUueXP0Wx0d4HXGXRBAEQfh/K9rvQRUE4b0l3si8G568obhy4waVypV7+m9BeFeIvC1eT45/cRO3+AVBEARBEASdIgpUQRAEQRAEQaeIAlUQBEEQBEHQKaJAFQRBEARBEHSKKFAFQRAEQRAEnSIKVEEQBEEQBEGniAJVEARBEARB0CmiQBUEQRAEQRB0iihQBUEQBEEQBJ0iClRBEARBEARBp4gCVRAEQRAEQdApokAV/js50ZzceZr43GLavrho0ri5cyFTv/2BZcfvoinueN47OcSc2MWZt0+sf7m9ILxKDnGn93I+Ma+4AxGKUE7safafS0SM6v+XThWoj0J/Y2pgOxpVr0at+m0ZMOlXgjKKO6p/QHOfw9MD6T1sLSGq4g6maCjPzmXAyA1EvLQ/yhurGDlgPueyX7Pt1TV8P2Mv8dpCnnx4mAmfNODrP3Jeu/130/YQV9j2OktN1KovCVwcS6kKvtibyt6iDRV3b5zixt33JIkK8W/yCuU11k6Ywb7CEuMN8grlNdZ+M429sf8ksd7/MREATSonfv6K/n37EBgQyJBRP7Hq5C2evJXJPD6Jjq0mcvxV6ZV7k80/zeVQoZOeUDw0pB7/mWEBfenXN4AvB41iysqT3Ho2qExu14pJx145qARt+on5B+Mp2lFVkRx8juB7z+aUv82vD4zOFKiqqHV81e1bThg2Z/S8pcz/rhseiWtYc/x1r1S6JfP0XKZuv07IvkNcefC+XDd7QNiBEwQ9PwzqBH6dMY9rNpUpa/Sq7dQkB4XxwKMsfvJCntZ3p8mX4+lR3fC126e5+xe+va5ShbNnRxjlA7+hV/uOtKhc8p+fZLk3WT18OOtuvM/v1982r0CdHERYmjv+hSXG3+bV32z/Kh/EmAgor/HHzgisWw9nxPAvaesSx/pR37A5Tg2Avmsjeo3oQuVXpJc6OZTIdFd8fN7mjanw31By/eBOImxaM2TUcALbuxC/dhTfbYzLf1rflQZ9RtC5yisHlbCIdFx8fSjSUc0LZuPX49kc/GxO+bv8+tDoyFn0kKO/LOCK+1fsmBWAqxSgApXqdSzuwN5cbjCrZh7Dc/hITGfPJzo6D2z085/TPCRo23yW7g4my+YjunZwIjS+ND27VMIYJfFHVrJs6xniHhnj3rgvg7tXwUpH3jrIXV1xUF8i4ZYKfPPT5eHxhSwLq8nwWTVeE7+S4OBYHD1MODV7BLuvpmLVcDBf966MGaCMuMSlR070NgN4SOjOpazYdZm7eg5U6zSIwCY2BAfHYOfni5kEeKPjpCR4+zKi3D5BfnQpO65k4thuJGMb5bFn0WL2Bufh2XksY1s6A6DJuM62eUvZF/oYu3q9aG97jWiHXnSubIwyaDvLo1xpKD/Oyu1XeFCyEYO++YIKZpB1dTNLQz0I+LwyJkDWlU0sDfOkT+PHbF+0hv3REkyOz2Wm9jOGtvci6/qvLFiyl7DHdtTp3QG7q9HY9+5CJWPIDNnJsmW7uHJXgn31TvTvoM/RlWs5nKDF8sB0JsfVI6BvFW5vXUKYRz86VzYBsri6aQnhnvmPc25uY2WUI5VTd7D8lCmfTh9PE7NEjq5ayq+nY8gy8aBR3yH0qGIFOTfZvjwKxyoP+G3pn5h+NoPxzax1MK9AGX+E1Uu2ciY2C2P3T+gztDuVrSQog4KIdfTA5NQcRu26SmrJBgz8pjeVS7ycV389vl8OaIxNUBAxdn74lJC8UV5pkk+w8pfnx6QO7b1j2X+/BgM7+KIA1IlHWPFrJv2GNyN42xIiXBoiP7GKXVfSKFm/P6N7VcXijfNYKC6quFAilW50qeOHpzm4mdaizKrfSHuoAVREXblCtmN3TFFz/+JGlm/8k9hsE9ya9GNMe29yQ0OJs/PJz628W5xYt5MHlXvTrvxr3nEJ/y1VHGGRStw+r4Oflzm4m/JRmVXsSnsIgDLqClezHOlmCur7F9m8dCOnYrIxcWtC32Ht8dKGEhpnh7dPCSTkcev4On5PrUzPDuV5flRzQnayPqY0FR/sZu05E9r8MIL6ihB+X7KaQxGPKVWrG61K3SDOvhtt7a+yYeUmjidqsDgyl9mJtenRvQrJT/Mrl7DfVxPjXA/5n+vYc/0BlvUDGd6lHKaA5mEIu5eu5GBYNiWrdaJl6TBuOXSn/XuWZ7oxLSqDOHP+IWVbtMZZWtzBvA01iVtnsEXalaFtq+DmkEpM9MOCtYcqIlYNIHBpCtX6j6JP+UhmBIxiw9V0ZKiJ3TSIHj/dxLnTKMb39yZy1ggWnlcW9w49JTF3xtn8LokJ+VcQUIWwZu4f2PYZRgsb7avjV0URHJZN8h8bOF+qLf3amHNu5nz2pWiAXEJ2L2HTpQfIySVsaSB9F9ymQsA3jO3hT/rNYDJyowgO1+Dp74niTY+TKoz9y9aw4JsfOG3Tjr6N4MDUbxj01XRCPT6nd9V0Nk9dWfC7kawdEMiK1Br0G9kLnxuT6DdmHdczZICK8H3LWfvzN0w6UZLW/VthenoG8/en5t/u2bWEbdcyyL/+lkvQ70vZdu0hcj0TSskzSTH1p1ZNP8p52KKJXM2gfst4UCOQ4b19CfqhL+PWXeOhFHJDlzKg10JuVwxg3Pge+KXfICTTFFvJQ1IsylGruh++fmUwU93k98VbuZ5RcMUv9ya7lzx5nEvY7iWsmTWOKeetqFG3MmVM4tg8qCtTbjjz2egJ9POO4Ofh8/M3Dd3DstWzGP/jeaxq1qWSs9n/MZueeX1eSVDHbOKrrpO56dyJkd8E4h05m1HzLgAqooPCyUk+zMazpWjTvw3mZ2excF8Kmhfy6hXHNyOX6KAItF5+eCje9Pwz+8uYmCYcZ/W6YySqyY/pt7n8cikDVOEcWL6K2WO+53TJNvTv5siNmd+xOkQF78D5/qF7FBpKkr0XHiaAOoWLm/YT7dyI+t5yyAvj0OpfuZYmR52wiW9G7UXSeCDDA5tSRl8NqIgJjQR3X1xygtgwYgDzQm3x93i/ioZ3zqNQwm7b4+llAqhJubCJA9HONGjgDeQRfmA126+mIVMnsGXcKPbpNab/yEAau+ijkoAqNpRo3PFxzSF43QgG/RyKbVkPXhzVPCIPrGbzgonMvmxJ1VoVcDSKZfOIoax7UIUvBnXDK3g6Q7/fws2HUtAzxVqSyQMLf6pX9sbLyxEz9bP8QhXBH2s2suTHqZyxas4XzUy5MHcxRx4Aqig2jfiKtalV+GJwD/xifmb4hK3czHgni6fX0o0rqJpk7j0wwtbWXEcq5n9Gk3qYeYsTaDxtIZ76MuKcDNgSFY0KaxQPj7JsWQL1piyhWy0TqGFBu51HOOnnhzx9P3PnxNBw7m76VtcQf3wPOZhgZqJDiSZ3w8Uxh0MJyahxIGXnXDZmt+XnHh7I0ve8Ov6MEEISZPiMm8qk7s4QE4SN3rn8NTyaDEJD7+JS2w9Zyj7mL0mm2aKVdKtuCPjhXw9I3UzIbReq+xvAGx4nTXowIXFKbMdM4odurmivn8E8/VfkbXYzvr0teSd2Y7olf73Pwz8WsSyhPpOXducjE6hu3pbdx07h6ycHzQNCguPItR/Nj1O640I8obZwRqVFo0khNDwFl6Z++QWq5j6hYSm4NvdF38qaciU1qL0+oftnHbGWPOTA0KUk1p/KLz1qYUINzNvt4viffvjIUtg/dynJLRayrEd1DAG/snUBNTHHVOj5NaFHp45YAJqko0SkuNK44Ja05n4I4SluNPWTgyaV0NBElHZDmbGwP54KSN/zFfNiPmH2ngCqaeI5ufsxmJYANGSEhJL42J4hsxfQz0tRDAlV4HV5RTp7f/6ZmEZz2dWvGpr4E+zNAZMSxkAGISEJyHzGMXlyN5yJIdhGj3OaF/NKoUlhT6HHN5UtIbdxqe6PwRvmlcSmHL6WL45JrtSNkrdjic0DN/VNdu6+TY3A5pBxlJB4Nc6jp/FjD1ekSilVrHYRn6CG0n/o/vn+QcslPDQK5Z1Ivu90nNwH99Er25Wf5valnAI0KeFE3HOmprcCVUQoUTJH2lUti3fJ8ngD8ICIsDs4uqWyoP8cwqqO55fBH2MjhrdY5YaFEq28Q9SETpzIfUCKXlm6TJlL7/IK0KQQHn6PMh95o1BFEBolw7FDVcr6lETik799WlgYd0q78WBef+aFVmXM0sHUenlQNRmEh99GaTuAH2b2xl0OmX+MY82t2nz7c2eqG0OVEi058OdZvL3kSEr64W2hBu+GdG7fFnNAk3LuaX5pMsIIT8zDbsi3fNPZGRLDsOE8Kq2GzJOrWXerNhOetGvRiv3Hz+Dl/S6thXszulGgokBflkt2tgrQL+5g/qEcriyexSHTmkzIPsuRwxruaY1JjokmU1MDk0uHOUMtJtc0yf/1x6GEJtjg42tBzqmDnHxwD/nwT/hDIsfMqTyfTJtHYFkdGRYAiTUuZUy5Gx+PKvs2S365QbUhP1LVCLKOvjp+5ambRJo3ZWJHZ6SAMjaWJBs33M0kkBdCcJQF3gNseHz6IOfM6rGk4ouLbpShN4kq4U1vOylZf7zZccoLDSayRBO+7+SKFMiMjeFe6Tb82NIWCRrS4+PJLNMIyOH8H6fgoxnUKBgWZXg4Cba++FpIIC+UoMgSNP6hEy75wRObZIO7pxmS3JOERNvg62eR/2bqcTBBTx8rCQmJoZSPDyUkQM45jpyGmtNrkt+NkoiwREr5+WGRfYZDZ82ou7wiL+05YWEJ2Pt4Y/pkv0JCiLHxxS//HjGPg4KIKfUk1hCCI81p/EN3PBUAWZw+cIIH9xSManQIPbkZThUaM3lufyCPkKBIzJtOpGtxFqe8Pq/IOsWh4w9IVgynySEJCjNHyjWeypwBZUF5iqAIc5pM6pB/t+VxLLG3bXDzMEOSd/ZpXkkfHSz8+CpDCYo0w6uPHY9PzXrD8++vYyJzd8cpZwcx91RkhK5nd25zpjW3RnktiBizJnxTkIOo00h/ZIaVBWS9C+f7h0ydTHh4Or5frGJqs2z+mD6GFXmWuJbKHx9VWCixFp70spGiX6IDncuM4IfPunO+/ziGf+aPaW4EodH6pCcuYI/jULZ99TE27+IVl/eKmuSwcNL8vmD5jGbkHJrO+KV5WLiWyi9+VGGExVjg0ccGqX4J2ncpw+jvP6Pnuf6MGfEZfma5RIREo5+RyKLfHRn821fUKmxQVWGExZSgwbjOuMsBcrh8/BxU+4Eqxvm/khsVwS0bL7wtJEA2kRGJ2Hl6Frw2vJhfqsshxJg1YEy7/NfP3Lh47lq74WaWx7Xj56D6d0/bVYZHcMvaCy+L9y/ZdGNmVHjh7ZbH5svXyGlbi3dpfbAqci2ztuVRtk42Z/fuBUCTLIGkaKJVGuyj43jo0BDn/MttpB3fzzmlB6M9pSRfvIWqxjj+WNtVh9egyXB2sSf9XBzB6/ew37oP61tYI0FNcsKr4lcTFxRGpk8nKhjlP44PDiPbvQeeClBHBxOe5UEnHxl3L98m174WzrIXt78TFEaGe0e89V/Xz4vbJAWFkun7pM9cIoIjUVRoj6+CguIsmpI+Q0CdQnxCFg6NXApOgHROHjhLrse4/PhiggjP9OHTivk3cdQJQYRludPNU4E6MZTIx25098gv8NJO7OOM0oMxHgpQhRIakYdbXY/8dYkp8SQ8cqCha8HOpZ/g4Fkl7uM9kN47w+1cez5yfukUVEUTFqXFvYlbQWxqEkIjyXHrQX6XaZzcd5rHT2KNDiY8y4fPKhfMVup7JN5WUX3cEVZ1e+kDWupoQsKz8O5cGeO3S4Yi9Kq8AvW9RG6rajDm6Bo+L/nigKvjXh6bYMJy3OnhpUB960le6aO+F1/o8VXfCSI8w532PjKSt7zh+feXMQGJmTuu1reJCQ9h/ZI/ceuzjepGapKCwkn3bV+Qg6C8eYkgSVmG+cpI3vAunO8fMGUIofEl8f3KA1snOZ16NGTLkJNczPyMNuZqksIiyXLtkH8eKioRsPQ3au2aztdTJ7DKZysDS4QQ8ciXbnP82TlsE5uut2BIxXfp1ex9pCQsNB5r36/wsHVC3rkH9TcN4dTFTD51MEd9O4yobFfaeSoABRUDl/Jr7V3MGjuV71b6sGlwCUIjHuHTYw5+O4axZeN1mg97+aIC+e1kedLuyYmvTiXxVjZ2dZ0L5owMTh++SK7bcFzl+etiI2O0uDR0eTrPP8svNXdCI3jk2Z5yBa+ft0IjyHbtjLs0hZ0Jmc/a1aRz+vAFct2GFRTG7xfdmCalzrT89CMe7ZjMtP1xZJN/5SF4+3SWHntU3NG9muYeu2et4F6z7/ll7hxm/Zz/M2NsM0rfjyYmEyRSCdqsRzzSgvr2IabPOkhaGR98jfXQN9BHk3KHO08+8K/JJVfnvsVGip1rGfSjNjNxRRptRnTFTQrwuvgfExwUh4OvX8EVpyxCQxJw9PHFGMgJDia+tC++pqBQKNCm3uWuBkBDelwcqZqC7f38KPHafp6Xv01pP19KkP9dpCHBybj6+eZfk1fFExyag4e/N+jJkcu1ZGdloUVN0sFpzD2YjrOfH0bA4+Bg4kr741siv+Xs4GASnHzxMwZVSgoZMkOMFKBOOsTM2YdId/bD1xjICiEs0Qlf3/xJSk8uR67NIeuRFtRJHJo6h0MZLvj5GYNCgUKbyr38HUeTHkdcigZyY4i6ZYmd/ZPZRkXq/XTkRkbIUZN0cDpzDz2LNeelWNHTx0BfQ8rdOzw7XLmoAHJCCIktjd/TXy5Or8or0NPXR1+Twt1nA05uwYA/DgomziE/dwCyQ0JIdPTB2/jFvHrV8c3f3g+/Ev/g/PvLmAAKdzycMrk0bzwbtV0Z1ckJKbmEhkShzc7ggRJQJfDbkj1om3Wi/j/pTygWqtgwolXu+Hrmj7PCzRNnTTRhkbnA4/yr6N7eGGXeIjFFBVJzvOvVwNVAgkSihzI0lAQ7H3wr9uCrlrlsn72BSDG+xUsVS1iUCjc/z/wlWQo3PJw1RIdEkgs8Dgsj0d4bb6NMbiemoEKKuXc9qrsaIJFI0FOGEpZgh7dfRboNbUnuttlsevm78QraSbD3xfPJkn49OTKZlpzs/NeYu0d/ZvHRDJy8vfPXrubGEpNkga3tkznlWX6ZoCQsJAE73yd3bLIJD0uktLc3hkiQSrRkZz1Ci5o7R+ew6HA6jl5e79SFvTelG1dQkVK602RmJA7jmyGN+HWsBcaaTPJs6jN8fjHfinyN3MvL+OVSWQJ3fvz01h+AzNkNZ9lRbt3SUKpeS6otms5Xn13ATFUC9zKlsLD0w1kmQd60G83XfU3/djfxK5nL3UQJTeeuYYCfjgxLAYWbB44pe7nfej4BT7//QoLtq+L3iiE8Vo5Pa9f8BMuNISLWAO8OLshQERsRi8KnDa4yKYqmn1J75ST6t7+Jp+F9ki27Mf/nsoTHyPFt06QbGwAAIABJREFU5Y7sdf08f5xUMUTEKvBp457fZ14E4Yk2+Je3yX8XpgwnPMmVsv7GIDGmTvPqLJoxiK4XzVBbfERFX1sk5ZyQoiI2PAaFb2vc8oMnOjwWQ99PcZaB3L0KZWXjmdalE0ux4uNq/thqyuEkhdyIECINPOnolB+XxLoOzWosZNagLlwyU2FRqxK+pSSUdZIilTWlY91V/BTQgZvehqTcs6Trwvk4m5WmTKk7/P5tHyI+6sHc8Q1xr1IO2fgpdPtsCVjVpoq/LdqyBbFGxKLv26YgVkBiR+NuLVg/vh8db/hTMu8OiXrNmbP2SzxjwonT96W1u27kV+F5BRK7pnzecj0TAtpz078keXcS0Gs+j1UDPYkNi0Hu2wrXgrGJCY/DwKcDLjIVUU/zCqSlCzu+c/APi0bu2wo3mQSDNz3/ZC+PySeYYoq7uw23LikYvLk/fvr5L4YhkWpsZbvo1/oY9npxxJf4nBmjamGMBMN35Hz/UGVFRpHsUjb/zSaAmTtupdKJjs9EU/Eu0fEKPJs7I7m1kR9G7AEXO9QJUSibjmGMD8Qdi0fu3QwXuTH6/QZTu/NUVh75lClNdOEN4QcqK5Loey74+z0dVNzdS5ERHc8jTUXuRMUj92pOGcktNn83gr24YKdOIFrZlJHjfCDuGPFyb5q6yDHW78fA2p2ZsfwIHaY34dmoqoiLikfh3RyXp/NwST5qXIUV80fR74opaovqlPOyQeLvmL/0R+6Ao81d9k0ZSFS1Lkz5yuZpfslUsUTFK/BqXnB1NS+WyHgDPNuWQSaRUatJFVbOG0nfy2aozNwoXcocC+8yulLMFSk9rVb7r7571t3Z5em/o+Ji/3VAqoxEIqLvozZzxN3d+q3fFahUKrzdPYosrn9DlRZNaCLYexiwp3czDjc9xJovbAsKp1RiwmJJ05pR2sOdUsb/v4vaT8buXx2fIohfk5VERNgdVFZueDqbU+hbkiI/TipSo0O4o+eIp6tF4X2+asu0aEIStNh7uVPS4OlecHvF57Q43IwDG77A9kl4qlRiQpLQc/TCxeKlXjRZJIWHc0dliZuXM+YFT6sz4gmJSsfU3R/nElJARVp0MIkae7w8rN9olbYyNZrw2DS0Zo64u5fi3xyuIsmTf0xJanQYcWlaTB09cC9l/M9v97zi+L7YzZvl1V/GJPsqP3cewMWWa1jVzys/fzK2EVh7AxV/20wnvTDiHpfE09vhxWP/fzjfn4zXlRs3qFSu3NN/C0VHnZlEVMx99Ep54G5rpCO3It8fxZK36kySImNIkZTC3d0Wo389qCrSYsO5o+eAh7M5L9+BVz9MJCwmA1NXH5zM/skn6VSkx4ZzG1tcDQ4wpONxGuxYQudSRZeFT44/xVw/6VzRLSvhiG8lx+IOo4ioid85m43JblR2MSTkwGZWJjZkdDObZxOavhWu5a2KN8x/owjilxjb413Z/j/v50UyrNzK8TYtyizcKGfx7LEmNZQz58+xY2M0Vfo2fPGDETIrXMu9oheJMfY+lXh5z6UlylC2cpkXYrVwK48Fb07fyo1Xdftu0MfKrfxbjc9Trzi+L3bzZnn1wpho0jk1dTSbTQPZ0Nvr6Zub3NBgoow86VJaHwv9V4zXu36+CwBITe3xKv83c5bwbpGaYu9d/vXzxT8iw8LF75XzttTMEb8K/7DWUSeyb+EWUlwq4WQQxtHt60iqM4xG1u/nWySdK1DfL1Isvf2wCjnN0QgVRvaNmbq5IzXFRzvfK5o71zh8PAqHgKV8/VlpcTXlPadJu84NdTMmTu3xbGkFoJU5Uqu7G2Xfww8rCIKgA6TmeHhbEnH+ONEqQ2wb/sDSNtUo+Z6+6OjcLf6ioku3+HVV8dy6Fd41Ik/eLeIWv/CuE3lbvHTlFv97WncLgiAIgiAI7ypRoAqCIAiCIAg6RRSogiAIgiAIgk4RBaogCIIgCIKgU0SBKgiCIAiCIOgUUaAKgiAIgiAIOkUUqIIgCIIgCIJOEQWqIAiCIAiCoFOK9Iv6BUEQBN3w/Bf1C4IgvA3xRf2CIAiCIAiCUEAUqIIgCIIgCIJOEQWqIAiCIAiCoFNkRdlYca5VeJlKpcLb3QN0LC5d8mT9sDg+wuuIPHm3FPa5gCs3bhRLLILwNp6snRZ5Wzx0Ze26uIIqCIIgCIIg6BRRoAqCILzvcq6zdcYaLqTnEbFzDkuP3kZd3DEVpfd9/z5wOdc3M3vNedLzwtk1ZzHHbr/t6KpJvnqQkxEP8x/du8qhExFFGajIwyKkYwWqiqQTCxkV8D273zoB/0sa7p5azNiuzalXrRp1m/diyp44cp//FVUSJxeMpP93v5Oki7sgCMKHRxvP2d9OEq1UcefyXo6GZKBFw50DUxnUtw+BfQP4cvBopq76k1u5b9DeK2l4sGcMbTrNKbrY30Sh+ye8L7TxZ9h5Mopc1R2u7D1CaMbbjq6KG1sms/BgYv6jG1uYOu9gUQYq8rAIFeka1H9FGc2en0Yx/chdcpItKf1QCw7/dadZpNzXUtLa5A1//yHXT0Vg3XoUs9wlhK6dyE9jvsWp4mq6OkhQRu9m6qhpHLmTzX3L0jzUgv1/vAeCIAh/S2qEoYERRkZSjA0NMTIyQg8ND8IvcEWvJUtH1kSTfI3N00cx/OESNgwpj/ytOpJgVrEjgQZGRb4Lr1Xo/gnvC6mREQZGxhhKjTEyNMLQSEdHV+RhkdKZAlWdfJ1Qwx4s25zF1Mab/uPesok9upZF89YQVHUe+7+u+obbmdNk7GyaFDyqYNaObQe2E3tbBQ5Skq+HYNBjORuyptB8438YviAIwj8hscDW1Q5LhYQSpRyxK2n29IVTz8gGNy8fDL08kF79lYDrwaRpymMjAc2D6+xYsZ5jYWkoHKrSJqAX9RwVgIaUi+tZsv4UiWornBzNUUjtqd2rK5WVqdy+m3/7SBW9n1XXbWloeYHVWy/xwKw87QcG0sBRDqpoDqy4jm0jSy6u2srlVDPKdRxIQEPH/OJY84Dr21ew6UgYaQoHqrQN4IsGjihU0RxYcQ3rmhIOLdvPw5rDmPTpq/dPePdJLGxxsbNEISmBjaMd1mbZXNu6ilDnrnSqZoUE0KRfYuv6ePz7dMBf/xW589peNKTf3MXajYcJTlZh5lKTdn268ZEdxOxfzgn9lvRoUBopKqL3LeOEQSu+aFAaKWpuH1vD/rwG9Kov8rAo6cwtfqlje0aNa4vXf/rGO4eEE8sZ16ERnadcwabHYtaPrQrKSywbEsiAwOd/+jNuXcjrW4uLJ1nmhIuTDJDi2H4MY9p683++diAIgvB68sp8tXw8tfVlePRZxE+tLf86+avuERr2AFtvL8wlgCqCNcNGsDOvHgGjv6Kl5Tl+GrKAa0rQ3NvFT6N/Q9VoAIO7+pByZA/hUgdKGkpQRx9n028XAVDHnGDjvK/56YAhTfoHUk+7j+8nbqXgSU6un8eESQcwbNqfgAZa9k+YyLZbakBF5OphjN6eR53A0Qxqbcn5SUNYdFWZv92GBXwzYTt5FetSwVb/zfZPeGfJKw9lyfg66Ms86bVoKi0tDZHfOc6ipYe4qwHQkHp4JYtO3EUuf03uvIYqYjUjB6/hfqUeDBsVQG3NPr4eOJfL2Xro3z/PihUHSFADqjD2LVvG4hX78x+rEzi0YgVX0ozQE3lYpHTmCup/TXPvMDOHfs/OVD/aD1jMvtblsJIWPKnnwSe9AqiY9/xqET0MbJ1e3eDjm6xedAijdvNpZStSUBCEd1PepQX07LgKVcYdEvPKMniQDwog79oOdibVYuTiFlQwBJx7cmrPLI6GDsY38zrhlvWZ0awifjJfmldcyVoTF5yNQPVS+3omdRgwsQdV9CEvty7rRtx8/klqD5xIt6r6kJdLnTUjCApTQamb/LYjiY9GL6Z5RUPAmR4n9/DzkVCG+gJaNV49pvNNB3tRAHyQZHg1b4zT5kMcSfqM7vapHD98gzKNhuOuvcasV+VORZ9XtJfLtW3biKkymNmfVscM8B7ZjwstJrP74iAm1P4Y919OcfpOL5zyznPlcWnsU89x5m4fyuid4WysN/VrlxS5WMQ+mAJVq0zndlIe5r7eeHuXwUL63JMSU+w8PLF8aWaVGb5ibarmLoe+HcpaevHL6LqY/aeR/3+oI5cT0GslESoteooKDNy0kM4O4nQTXiTy5P0jL9+T2RMbIs+5x40dM5n85XjMt8ymXkICd1Ov80PrM+RPlxqUj01ppQKpszulHxzg6MVErKyucOSmDOcmNkj5a4GKvjGGBfOtnokxhqp7z57T08fY6OmTGBuqSM7VQE4CiXdSuf5da84WvEppHz/GpHVB6xJrPLxtREHwAZO5NqeJ11qOHEqgc4sLHAtyo9FYF6Q5u16fO4V6RHxCKtb+Ls/ugCqcKG2TxbU7mUhr1aZmmRWcOX2fxnqXSKnSm89Tf+b0mRQaS04T6VmHb0uJbCxqH0yBKnXqyNyDNTizaRELAprwi/+nBA7qTQt/C6SPTzKz8ySOZz2/hR42LaeyYXiVFxvSpHBycgDfBtVm2uohVH4fqlNA6tGXlaf6FncYgo4TefIekptgaW2NIdY0Cvycw7/+yPmgPBoZGKDv0JYZO0ZR4aVPTOXdeECWmZyY5aMYrjTHq9NUBtUzLrqYZAYYGDjQdvYOhld8qXPlH0XXj/Dukpbmk6b+LN91kCsGVwjzbsw3TlJ4/Jrc4VW3+eXo60t4nJ317FP32myyc2SYmBqCzJXatezYeOooxxXReNarQ520XSw7dYRjkhDKfDwKO+krmhbe2gdToAJgUJqPek3mo84JnFi3gIV9m7Lpi1VsGlCPr3fX4+u/bSCLqwv6M3K/PUMW9MUr7w5Jt/VQlChFSRORnYIgvMtUJF84R4TaiVbOMhT6FfF+8DsnQ7KpUD7/upImLxe1XEFWTCRJMkdadaiNrakp5qUcMSzKUPTLUcH7AbtPhJBdsXz+VS1NHrlq+d980EX4cEgo9UlzKi9cwtSNj/D9YhK2kr/JnVd+NYURZSt68eD34wRlV6aiEWRd/4MzaeXpUtkQkOBR5yNKbl7FasMydB9pjm1WDeyXrmSlxI4OXzoiKoCipzMFquberwz9dA5XlNmkPc7mWo/abLNpyZ97/75s/McMnajbbzp1u8ZxOeYfTKu5YRzceY0Ht9V81+4Q30H+SdJpJaen1ebe1q/oMucyyuw0HmdfpdfHv2LTajq7vq5V9PsgCILwL+kb6KM+O412n8wFrQY9Uw8afT+Jrm5SpHRkaP+LjB3SkSu+7pgpk0lIL8eoTeOpUfkjfOZv4s/TWizVWdwPvUysXSCLFnxOaakMubzgdmfBv5/WBRIZMtmTlx0pMrkcydNXIQkyqQyZLP/qWPsR/bk0cgidL/viZqYkOSGdcqM3Mabay9sJHyqJVQOaf/Qz405VpFcD6/wlH6/Lndrk59iT5JFKC3JVSpnPRtDvwihGfnYDH0cNiVHZVBw9i9YFnzGR+9anltUGfjX5lKrWEqTWtahpu5R1svbUdRHJ+F/Q02q1/+p7ZJ//u8+69Le6VSoV3u4eoGNx6RLxN9aFNyHy5N3yZLyu3LhRJH/TXJVxi6i4FNTGdji7lMJYmsv5H9swWTKRreOroQ+ob60hoMNJPvl9GV2Kci2eKoNbkXGkqo2xc3HBxlhcp/oQvHne5nJlegdG3glkx5yWmD//1FvlTh5pcREkPJRTyt0dW6MPc13pk+NPMc/7ouwXBEEQXklWojTe5Us/9z8STEoYk3Z8J1v2PsLZIJPwfdu55d+RalZF/IIuK0Fpn/KUfoNfFT5AORfZdySDyl/VfrE45W1zR46Fsx8WRRmj8NZEgSoIgiD8AzL8+i9gjsNOjl0+RozaEOvKI1natg7O4hVF+D9SP8jCsm4/WtQpUdyhCP+BIp1OHj9+XJTN/Ssq1bOvlNCluHSROD7CmxB58u4q+rEzx695T/yav9ALIkWEovS3eWtVh97DEbn3nirSNaiCIAiCbnh+DaogCMLbKM41qB/mCmBBEARBEARBZxXpLX5d+pSv+BT/3xOfzhbehMiTd0thd7X+zaf4BeH/rSi+fUJ4e7py50VcQRUEQRAEQRB0iihQBUEQBEEQBJ0iClShQA5X1v7I8jNp5Ib8yrS5h7ilLt6I1HcvsfdwCA81/3DDnCus/3EZZ9NyCd06lfkHb1HMu/Ie+T/miRjHIpNzfTOz15wnPS+cXXMWc+y2OJJFQvOQ8OOHuJ5c+CSVm3iCdbMnM33BXiJz/21nOVzfPIN159PJC9/J3MVHSfpAhvE/yd/nxy7nOltnrOFCeh4RO+ew9OhtMdfoAJ0pUDV3T7F0dDdaflydmh83p89Pe4j71yd0UdNw99RixnZtTr1q1ajbvBdT9sSRH6aauK3j6NmlC92e/PSaw5mc4o75TWmIO7mV4+FK1Enn+f3gTdK1oEnaw6Ren9Oty+f06BnI6GkbuXhP9Qbt/Xuqq+uYOHMf8f+0QNXE8ueWo0Qo1SRd2Mmhm2n8q6+qEJ5TeJ6AiqRj8xjSvhH1a33MJ5+OZsONhy9sqUo6waIR/fhh118n/0KfE+NYZLTxZ9h5Mopc1R2u7D1CaEYeUVu+pn+fPvR76Sdw4CIuKIs74neEOpb9cyaz9WZeIc/FsGH8ePZkuOBrZ4D6H1c8au6HnOPmnSdta0k88xt/RilR3bnMviMhBefe+++v+VsEO/782GnjOfvbSaKVKu5c3svRkAwx1+gAnfla5YdXTxNh3YqRcz2QBK/lh0lj+d6pIqu7O/yHvWaRcl9LSWuTN42S66cisG49ilnuEkLXTuSnMd/iVHE1XR3UpIRfIMawOQH1SyEB9AxccVL8h+EXKRnGxgYYGRshMTbG0MgIYz3Q3A/hzFktrTZOoHZePGdWTSOgayxLfv+a6kbFHfMrSI0xMjDG2EiCsZERRsbG6BV3TO+NwvNEHb2G0UN3UWb6Wg42MuL6nN70GzYPr33fUEVfSczuyYyZeoS72clYlh6Glifn9WueE+NYZKRGRhgYGWMoNcbI0AhDIymW3rVpRAZazR2OLd1ARr1htPWWgqIM9jrzyvAOyw0jJMaWOmM/paXf2xzQLE4vGMrv1baxrGdppEgxNMo/96TGhk/PvQ/BX/O3iHdcaoShgRFGRlKMDQ0xMjISc40O0JlpyLzZGGY2K3hQwZR2v+5nR+xt4L8oULOJPbqWRfPWEFR1Hvu/rvqmUdJk7GyaPAnTrB3bDmwn9raqIEw9Svh+Qpfu5XTnwL4xPSzt3bEvqY/UwhYnBxvMnpyhesaU8vSlrIkvfs7J/FlnJQdvjqJ6dQWatGtsX7KGg9fvoirhRq0uA+hV1wEZKiJ//4UrNh8j2buQPRkfM3p2T5yjfmPBwp3cTFVQuvYXjAj8GGuJmrunV7Fo7Qlisoxx/rgLXwbUxQoAJQkH5rLx98vcM6xA5+GDaFwmv+rXpF5hy6JVHApJReFYg44DA/mkjD5ILLF3t8dKIcXC1gkHmxJisikyheWJhgenj3HDsQ3fNnRAIYWqfT6n6tqlHAkZTZVyyVwPMaTbik1kT27C5uebU7/mOTGORUZiYYuLnSUKSQlsHO2wNpNi6dyUjuWBvKskbtxCUpV2fNrC8Ok2mvSb/L56I0eDklGZuVCjQx8+r2VXMLdpSL+5i7UbDxOcrMLMpSbt+nTjI7vnZ74srm1dQahzVzpVs0ICaNIvsXV9PP59OuCvn07QrtVsPhxEssoM55od6NWtFnYyUIX/ztJLpejcpTqWEtDc+5MNO7PoHtgUVNEcWHEd20aWXFy1lcupZpTrOJCAho7IAU3KRTYuWs+pRDUlnRwpoS/Fvk4vutawehaaOonT69ay51I0KTlyrMs2o2e/VngagSp6P6uu29LQ8gKrt17igVl52g8MpIGjHIC8W8dYtXgbV+4b4tu6PoXe6Mu6yq8L9xCR84CUjTOZW6kFATUz2LZ2N5ej75Mjt8G/WW/6tvLECMiO2MOy5XsJTpPjUPNzBvb0JX7LIg7H5ZKkXMbs+6Wp+nl3LGxdsbVUIClRitJ2JZ/N0e+5v+avXkEeXMO6poRDy/bzsOYwJn3ug+TBdXasWM+xsDQUDlVpE9CLeo75rxmvHDuJBbaudlgqJJQo5YhdSTMx1+gAnbnF/4KcOOLvyXF0cSrqhkk4sZxxHRrRecoVbHosZv3YqqC8xLIhgQwIfP6nP+PWhfxNmPEky5xwcXoyKWtRJkdw8ewFbsalFT5x6SwFVcds5PsG+si8B7BybgcK/bPaeWo0egYYG0pAFcbywABWJFehz9cTGNBQw+4hvZl5PhtQE31kFXOGjWJrbmUaVLFHX3WDJcOnEuoVwNgxX1DdLIdHWlBe/ZnAIXuQtxzO18Pb45J0haD0/Pv66titLDxoQtMBX/KJdiejx27Ij0MVxrLAL9mS15BBE0bR3uo0EwJmc/kxoKjGqE0/UN9AhteXq5ndwUpHE/1dVHie5KnUaNE8uy1m5EjpEvdISFCD1JF2Y8bSxruQS+6ve06MY5GRVx7KkvF10Jd50mvRVFpa/s2RVEWwdthg1t2vRLcRo+hTR8P+sQOZfym74OnVjBy8hvuVejBsVAC1Nfv4euBcLmc/34g+8jvHWbT0EHc1ABpSD69k0Ym7yOUqIlcPY+ia+1ToMYIRAXXQ7BvLV3MvkQPkRRxhw65LpBQs71HfvcjOTccLHsRwcv08Jkw6gGHT/gQ00LJ/wkS23VKD5h6//zCanepG9B/SFe+UI+wLk+JQ0vDF/csM43pcCWp1H87oIW0wPzuViWsiUAHqmBNsnPc1Px0wpEn/QOpp9/H9xK352+XdZNnwCRwzbMGAgS0x2r+QnYmF3LuXW+DkboeJRB8rZy/cHS3IDrtGXImP6Tp8LIPblODc1G9ZF6ECVTCrvp5DuMcXDB3yOZVNc8jSyrF0cqeUiQRDa1c8PN2wNVFQaehyxtbRR+bZhwVTW2PxgZwQheavOoaTGxbwzYTt5FWsSwVbfVBFsGbYCHbm1SNg9Fe0tDzHT0MWcE35N2Mnr8xXy8dTW1+GR59F/NTaUsw1OkAHL/QpCVq5iD+M2/Jza9sia1Vz7zAzh37PzlQ/2g9YzL7W5bCSFjyp58EnvQKomPf8qhM9DGxfUyA/vsnqRYcwajefVrYSQIqVZzWcDv3B2hWZJN4IIs2tFzN/GUJN83c81bVZpMSEE5oXx7FFK4ms8AXf+8pQXtzE5shqDF/WlZolAP+vGXi6Ht9vO8uw6h8DWtS+ffl5SmccJIDyBA/SJZjaO+NZvjT+5QGUnPp1B8l1v2NEq4oYAT6VGpP/DEjs2vPtjD7UMIDc3EYsH3AdgNzLW9h6uy7frGtLZUPAtR/HdkzmUPAIKld+Z9ZVvCck2FSrhuusnSzaWJU+5aXcufIbl9NyKZUrPmrwLsq9uo0d0VX4cu6nVDMDfEbS93wLpu26yJdVanJz2zZiqgxm9qfVMQO8R/bjQovJ7L44iMp19QtakeHVvDFOmw9xJOkzutuncvzwDco0Go675iozt0VTafBcOlY3A3wY3u88bSbv4uKgKvztPS09E2oPnEi3qvqQl0udNSMIClOBTQQ3wiypN6cZFfxk+LSsyKrVJpRxeekNkHkDvvy+QcEDD1p+vJQ9UdHk4Zm/PMukDgMm9qCKPuTl1mXdiJsA5N08wKF7Neg/uDnlzaD8FD1ut//2rxcjFM5Ub1oOm2lBuNdtRQtPGTCIb5922YZaS/cQFZ0HzumkZUgwsXXEw98BX/+C36n1P/bOOyqqowvgP7ayuxQp0ruACFgQjRVUYosaTWyxfXbF3luK6VFjitEYe4/RiN1YYkHFXgBFjQIqElAQ6Upnd/n+ADsgKolrfL9z9px9O2/v3DdzZ96d3pqav33PDY+3ebeTHeIn4xCAIg3V+87mky42iIDC0FlsS2jCpEXtqaMAnPpzbOcPHLwyGi9tBfNOQGfQMQdVy+0/P2XCaui3eArNjCtPclF+BrcSCqni6YGHhyMmj5Z2kSHWbu6YPrH2R6IoY26q9jb7Ph3HGgawcEozjAAQ4/zBTJZ9UHJLxkE+7jCC79Z2YMsot8p7kFeBJootX37GUVUVHOpMYc3ADrhLIPVGLMlWtXFR3b9RjqOjJVmhCSUr70VY1PDE8r5/Lm/C4Cn+jP68HW02tqf/uAn0aSDi5s10LH0dKc2t1NNXoSqxUpGBAUp1IgB5sbEkpoTxYYsjD4Yc83KN6FzKWgWBfx6J9wjm/SRh0abFzN6nj42nHVWNDDE2lr5q1QRegOy/40ix8OahXyfD3t6CrPOJ3NNm8XdcKlW9nXkY7ICdRTbnE+8B8gdyJC7taFN9DcH74ujR/gyHLlWj5TRnxFnniUu1wOsRx1HmYE/V7PPcvleBVZF6clTKkkpczwCVQs2dAi2InXC1T2PfgbPEm5lx/sBFJM5tsHjSu9Pe5dLmeSzafJobaXkUZqeirv9IvHIVigfiVSjUSQCoE2+RauKE7f0OWf0qGCv1SK5AmmrvXmTLvIVsPR1Del4BWamF1NcCsgb0HduYKbO603lba3oNH0n3euaCQ1oRRFVx87B40NuZFxfH7dQIvux4oiT9tOTnGfKuGtRJL553Aq8GHXJQtaSGzGDY9Is0/W4VY+oZVap0sUNX5u5tyIn1C5g/pA0LvbsROGog7b1NEOcd4fseX3E4+9F/6GHRYRa/Taj3hJopHJkxhE8v+fHtqrH4lqGmqIovPm56HE+6A7zmDqqkLkNXLaPLE/66TC5HnJtF9oN6XUt2Ti4SQyMUpXYaS3B671u2txjMgZVf89WQsbBzAYYyEXm5OTzPYn2Jvj5yu+78svcThA5TXUCOY6vRzGxVfKVN/p0hG13xqiE4qK8jEpkccV4O2Q9hq7NxAAAgAElEQVQGlYrIzclFojJEIZIil4vIy8l+OKWjKIecXAkGhk8MpYvtaNXWm2Xb9xKuH06kR2s+cRBDtgy5KI+chxFQlJNDrkSFoUIEenroabQ8d3tTm05athGSmGVMG5tPleofMGNsc1RP3FYQOp8P58fR+efV/FTLiJgFvRkUXQH5Uhniglzyn3uJdwFh86eyIK4rc1fPo6ZRDIt69+MqABIc2n/BOr++hPz2PbPHToMNi+lp97xxCEj09ZHbvsd3WyZT54mqJ3ffi+adwKtCZ8aes8PnM3z8n1iP+YaB1Qu5fesWCclZlRuJvh2NB8xg3f4gptRNYu3gtvRZeBn0m/PxH8HsP/jo58DTzinZnJs/jEl7bBj9zWCqFyaScCuBlCwNaJO5EZPxwMnS3j7E0ctKavpWr9xn0CGUPvXwSDlOcESJZ591jj8Pp+HjX59SF/jn3SQmPheRsRutB/egnjyF26lyvGu7knjsMFfzATQknTrE+czy45b71Mcr9QQHLz5sVWgL8oXhGl1Am8zRn1cR2aAr79jqTBUj8Bwoa/ngnnqKkIslk0qzIzhwPJ1aTXxRoKSmT3XSTh3m0oPg/ZxIr00j3yccVERYtmqH783tzFp3Bc82LbESAcpa1KmeyunDFykWkc2F/cfJqN0EHwWIzc0xTr7OjUwtaG4TsvEA8RXZ3S47hmu3JNg37MKAYYH0fb8R9k+qBOTfTiLD2B2fGqZIChO4HJVcoQayzL0GzmnnOHOtANBwJ2Qzhyu0EXA+SUnpGLv74GEqoTDhEtHJJTHmJxB7KxeRUTVa9O2MjzyVO2laQIJMJiI7656w5VEFkdXywSPtDEcuP5wMrS0soPCl8k7gVaEjPagFRO7ZTkTaLTTTO7N/evGvIssPiD49q/KjUzjQbOhsmvWOJSymlNqrTDUj2bvtPGm3NHz2/j4+K9YSyw9WcPxLORtGjOOAsjrOhrnER97E6J1vmPOueeXr/28iliKVihGXsqRR7NKbD8ecZMywDpyr6UBRbDTZ9aczv6sNIvIRS6RIRQ9NTHvvHL/0nc0162oYpkSSWHcMI2sqcHWZRv/DoxnQ7jReFpnE5Tbjy9UtQCxBIhE/NFKxGLGk+Ers0JNpY08yJrAdZ73dMcq/TWxaXabv+IJm8qd1FfhnUUcuYPCYAxTZVUFzK4oE887MnPN+8fQObRKbRndnblg+Oel55JzvR/ONFrT/bjMfNsooO6yJkJH/DmIkEgmSR3qcxE7dGT/sDFMndOeipz3auGvk+kxhdicrRIBj94kMPTOZSd0vUMNeS/y1HHym/EBHq6cbJCKzANo1/okPj/kwIKBqca+I2ImuE4dxdvIEel7wxF4bx7UcHyb+0KnYga3blQ/chvF9/4HsMMpHVa8BXgr1Q32lUh5WLSIkYgkSCWDoS0PPn9kQcpwiMw3Zd64QFmPNkMXz6en6sC5SNe5Iq2Wf8VHfSGyK8qlqa4NKr2RQXSxBKhXxIDlEEiQP6p3ODPtgLx+O6s0FVwn3JL7U9dJHU8aIkVgqRizSA1Q07NiG5Z9NZUCkLUX5VbGxUSESgzYrgmXD5hFj5YxBajRJtYYx2FMKiKjd1JfUudMYfqE6/uNn8L8aOvLK1gmetAMQ23Vl3LCzTBvblXBPV4zy7xCXUYvJ6z+iyXPlnYAuoFdUVPRSjTNXJ+cH36/F3qgMnSoFtVqNh2vx0Pq/ppc2m9tXo7mVJcHUyR1nM91+wd7Pu5dNn4LUGKJiM5FZu+Nmoyq/Wz4/meuR8WQp7fFwq/pwtpo2m4SoaJL0LHF3t0FVwUpDnRFH1PVkNIa2uFSzwkCYuFXpVMxOtGQnRHM1IQepRTWqOxjrSuv3jeN+foVfuEDdWrUefH8RCtNiiY6/i8zSlWpWyifKdiHpsdHE3ZVi6eqKlbKsQltA+OwuTEoMZMucDlR5PAL+jo7nrtSSaq5WPCZCc5ebUbHkmLniblmxTZcLTn1N569FfLb5I+rLAc1Nfh3YhaOtd7Ckt+XjN+encD0qAT1bD1zMnmeekJrM+Cjickyp5mZNmY9dCvkp14hOEGHj4cJjURakciP6JtlKW9xczB+ZxVtI+o1I4vJMca1uW+F68XXnZe1WnXmTa7EpaFTWODlbonrwXnjxvHuTuJ/+vGK/TniHVCYiFVbVfai8vQdeD2RmLtQ0q8CNAPKqVKtd9enfRSpsavhg85xxS6o44OVb2duRCTw/IlQ2HtR53gwU0Gmkpk54mZYZiomTFybPEpJ7lt3BmfiO8XvcOS2OAMeyIhAbYedZq/SwMhAZGKNKP8yO9bvIdtbnXuRutsZ7836DUioouTnVar3ICJcEY3svar7AP+XmrtQsLUqZGc7epVWiUkycaz47jQUeQ2Jsh0ft0ibxvnjeCfz7CA6qgICAgMA/hiYtG9NmQ2nvX4nbspSBxHsYc+fasuNgGIeva1BY+DJ++Xv4OQuvOgGB141KHeIXEBAQENANHh3iFxAQEHgRXuUQvzADQ0BAQEBAQEBAQKeo1HGPN36R1GtGZS2SEvhvI9jJ60Vpo1ovuthEQOBV8LKLpAReDl0ZeRF6UAUEBAQEBAQEBHQKwUEVEBAQEBAQEBDQKQQHVaCEXMLXfM2yE+kUXN7It3P3oQuHbOSG/cqMJSdIL7jMpplz2RevA0oJCLxm5Eb8zo+rT5NRGMX2OYs4dOvNKEfau5GE7DtfRmgB8SGr+WnGTBbsiq6EU+hyifj9O349nUFh1DbmLjpIwpuRzP84lWe/Gu6c28uR6LvFV0nn2BdSkTNuK6woQd+t5kxGIdHb5rDk4C0EE3hxdMZB1SYdZ/GknnRo1pgmTdrS/8s/iNW5cyu1JB1fyJSe7Xi7UUP82/Tl6z9iH1Zs2VfYNP1/dGjWFP9m7zLs+wO8Pu8BLbFHgjgclY8m4TQ79l4kowjQ3mLn5/3p07MXfXr1ZejoT1l6MI78kv/c3v0Vg3oP4bMt13nqJEL1NTZ9NJC+g+dwPAvUV9cxLXAOxx45wVYTs5FPBk0j6NojCaW+zJoJY1kRUYA29ghBh6LI1yRwZtteLmUIh/4JCDwvRX+fYNuRaxSoEwnfFcyVzCLuHZ3PhI/WcflBBaYlJfgHJnz9x2tUb5WP5sZu5s34vfSwmF+Z/tEOMp29sNbXPL8joUnm8qkLJBbe/6GI+BNbOXotH3ViGLuDLyNUV5VDafb7Yqi5sGEGv+yNL766sIFZ8/ZWpqKc3HqE6/lqEsN2cfBypnBM7UugMw5q1vkzJNYaz7K9R9mzoD15Gz/h253p/3Cs2aQkZ1XgvvtkEXE6kVrjV7D72D7md8hj08cz2ZUOkMPJ2aP4Ma45s3cdYf+agehvm8Qn62++Ji0oCSqVPkqVEpFKhUKpRKUHaFOIPHEGPf8pfPzReHrXy2TD6KH8HF4AaLlz6Rinoi+y98elHM9+XOK9Q4uZFxLN9aNnuHpXi8TCkOzTG9h1JrfkDi1JIVvYEryFTcHxD9JJfX0/W/anIbeUIFEqUSgNUIkMUClVqFSlnLkqICBQLmKlEn2lCoVYhVKhRKHUQ+Xlhvz0Ypb/WXIOfcFfrF+whbsO3li9ASeyFUT+RYxVc7p268j7b9fgOQ69Lib7KAvH/cD+pPs1lxiFsrgOFasUD+tQgZemNPvVScRKFPpKlEoxKoUCpVKJjmr6WqAzuxcbtRnP5/cvvFrR2PEXDt5KgX/kDI0cbhxcw4J5q7lUfx57Pq5fUS1pPeHLB1eerRrjNP8gCSkakB9jy+48Ar7vg6eBCAza07/DAvrtDSGtV2+q6kxToCz0MLVxxcZcjtjECgdbC4z0oLj5p4eBVXVqeCuo4SEm9LcPOHchDW3d4iNRZHU60jZmK0H7U/F7z6y41aNNYvf6I9i/3xm9FSVDbIaN8PPJYcmJvygIqIeMe5w5fQ2H6nZEHztO6hAnLERa7pw4RaxHAH5VReiZ2VDNxgyZuAqWjrZUNRaKu4DA8yIyscLZ2hSZyBgLe2uqGukhMn2bAd1XMWjN71x5ZyRW+1ayI7cNn3dxRgxoMy6yY9U6Dl66g9rImYZdBtGriTUSQB21gyWhlvTo2QBTEWiTjvLbtmz+F9gW9fU9rIyw4m3TM6wKCiXNqDadRwYSYC8t7qU9u5bFa48RrzHDwb4KMrENfgN608DsYSWpSTjGb2v+IOx6MrlSC7zfGcjgd91RoiZmz3IuWLXE5MxKNoWmYlS7K8MC38ZeClDIzUPLWbIpjBSFFx1alD4Ml31uAwt3RpOXlsLv38+hbvtAGmQGsfaPUGKSc5Fa1KTNwKF0cFcCOVzduZgVuy6RLrWlQa8x9POMJWjBfv4uSCB/6fck29Vn4hA/TKxcsDKVITK2xM7avLgOFXhpnrbfHM4HreSKU28+eKv4naPNCCVo7d94D+qCtzyNiM3LWR8cSbrMlnrvDaFfgD3lH2irJePidtasO8Bfd9QYOTfi/UF9aGwNMXuWESLvQN8AO8Soub57KSH679IvwA4xGm4dWs2ewgAGtDDBysUaU5kIY0t7rM2NBAf1JdBBt0lLZsRODsXZ0aBBZR9hmUtcyDI+7NKSHjPDsei7iLXT6kN+KEvHBjI88NHPMD789XI5amYSsfMQf9s34C17MZqEq1zPssPZRVpygwwXZ3u0N28Q99TYty4io/7UdXweIEfiMZwVc7tgVop1qBMvcjnVBk9Pk4fGI65B547WnAz648GcK/W1jQRdqkvXDo+cfy0ypam/F8mnjnFDDeSFc/qiI++ObIn1xWOcvAdwl1Mnr+Dk1wwbMcjemsrarwKQSzwYtuonOpemlICAQLlIfcex+CN/5BJ3BiyYRQdTESDBvccgmmdu47cD4WxaG0q13gNoqALU0awZP5pfk+vSZ+JkBvlr2TNtJD+H5gBQGB3Mb9tDSdEWy9fcPsu29YeLv8eEsG7ex3zzp4I2wwJpXrSbz78IAkCbtJ1vpmxF3XI4o3vXICV4J1FiW8wVj5fre5HniTVuSu8J0xjdyZhTsz7l12g1oCEmZC3zP/6KfYq2DA0MQLt7Ol8H3SzW6+JiJk8/iKL9KIZ3ULL3l62UNm1dauKIq7UBIrkZTtXdsDPJIep8LMZN/8e4aWN51/gksz9dTbQa1H8tZ/qcSFz7TWR0r/oY5mZRJDXDwdUKlUiBuYs77tWsASl1xy1jmr8cifsg5s/qiIlQXVUKT9uvAmniYRYs2cdtLYCW1AMrWBByG6lUzdVV45myuRD/wCmM6mjK6a/GsuBcfrlxqKNXMWn0apLr9mX85CH4aXfz8ci5hOXoIU8+zfLlfxKnAdSR7F66lEXL9xRfa+LYt3w54elK9KS+jFn2EX5yCW6DFvBNR1NddLJeG3SmBxUy+POT/vx8KpmE+DzcBv3E0HrySpOuTTrA9+M+Z1uqF52HL2J3x1qY3R/G0nOj1YAh+BQ+OltED32rUhzkjD182m8ep5NvEZ/nxsC5w/DVB/W9LHLQR2Xw0BylKiWSvByyX/tJKAWc+qEzHRYXknErjsI6kxnvJYcHs07FVOv8Pp7LN7Mlug9jamgIW7+F1IDPaGUSy+YHckRY+vvj9n0IJ29rcU46xXmVL93fbsad2RM4fjaXTk3OcirCiqYjXXTJOAUE/psYN6d/j9UM+GEaoYq2fP2+PWKg4Nwmtlyvx4i53XjLCKgxicGn2/Pt9rOMqNfsmWL1DPwZ/kVf6smhsKAZv068CIA6OoIo0xZ8944PXhJP2vmsYI2BM07Kx/9fJWAUnwaUXLh1osmSnVy7XgjuIkAPlf9IPu1bHzmFdG22mskXIwFLLv25l6SGIxjVrjaG1OZrvZt0//TpXlSZU0Na17Lgu0tu+L3bAXcJMOpzWpSEu3ZqyvKd14gpBKeMdO6KDLG0d8PL1hOvknsat67J+u9j8Hi7I+/avQFzInQKCdXbtcbh930EJ3TnfzapHD5wAceWE3AtOs8PWxJoPGUR7XwUgBN9j+zkp+ArjPOpUYa8As5v2kRMvdH82K0BRoDHpKGcaT+DP86OYrpfU1wXHuN44gAcCk8TnmeHTeopTtwehKPeCU7e8KCFn7ngjFYyOuQDVKHFlGXUzcrk1rkdzP1yBANYwY4pFR1+L5+i/AxuJRRSxdMDDw9HTB6tT0SGWLu5Y/pET6dEYVCKmgFMXu7LvcxbnN8+h2+G94WVGxmnkCBBjbpQ+6BjukhdSJFMH/3Xvo9fRt2hS5jZVkpOYjhBX3/CoAkmbF/43oM7RLYd6NzwZxYEhTJkbCrrd8vpsKQRSmIfkyR29KeJ4yJOnkzFPzmU7Dqj8FTVIaVBEbOORpBteJJwZWNm1NAh0xR4gObqMoYMWEG0ugg9WR1Grv+FHrZCtfz6IqFatz40WfMxyX374lviKGb/HUeKhTfODxxHGfb2FmSdT+SeFlTPEitXoSipY/UMVCjUSQCInVyxS/uTg2fjMTMLJ/iiBKc2Fjzp3mnvXmTLvIVsPR1Del4BWamF1NfeD9VDX6Us+Y8eBioF6qQCoJDEWymYONmiX3KnfpUqKPXuVCAdtNy9uJn5CzdzJiaN/IJsUgvrowVkDfozuvFEZnfvxI7WvQkc2QNfc8EhfdVIXNrRpvoagvfF0aP9GQ5dqkbLac6Ic7cTn5hKxGcdOVnyGinKy8OgY3lDmVn8HZdKVW9nHpq8A3YW2ZxPvIe4iR+NHJdz4ngyrfVCSak3kF6pP3H8RAqtRce56u7Pp5ZCPVjZ6JQXIDcyx8LIHAub0UyNOkCXP/ZCJTmoYoeuzN3bkBPrFzB/SBsWencjcNRA2nubIM47wvc9vuLwY4t89LDoMIvfJtR7UksMzS0wNLfAZsw0ooPfZ+fey0wItMJcL4XbiVqwEAEabt+6g9a6AbY6lcovhszQHAsLBVi0Y3T/Paz/5DgXCt7D6v4Noqq06hrAD9M3sKnqHU44dSHIWwYpTwiSuOHXyJygY8EcyYzHq1Nd5Ch5q6kPmYtD2G94lsIGk6hd/mQhgVeE2G0wK44NftVqCFQmCjNMDKQUmpk9cBQlMjnix0Z/isjNyUWiMkQhAvT00NNoKSxbaqlo09PINpISs2wyE/KrUP2DWYxq/qS7W0DY/KksiOvK3NXzqGkUw6Le/bj6TOl6SGViCnPzn3/ldEEoC6bOJ67rz6ycVwvDmAX07Vey/ZDEgXe+2EDTvodZ9/1Mxk+DdYt7Y/e8cQhULmI7WrX1Ztn2vYTrhxPp0ZpPHMSQp4++vi3v/biFCT7SJ/5U1jC/FLlcRF5O9kPbKcohJ1eCgaECJC74NbFm3bGDHJZdx725P/7p21l6LJhDoss4Np2MtdBmqXR0xOXXknL9Gqn3GzjaDGJiU5DZOlZuNPp2NB4wg3X7g5hSN4m1g9vSZ+Fl0G/Ox38Es//go58DTzun2mRirqbwUM0YYpNl2DpYIzJ9iwbVb3Fk/1/FRSA/il37Y/Bo5o+VjqRypaBO4uTxy2id3XF+ouwb+neljf6fzJx7Gd/unXAotcDKqNm8IbJTS1h7sRoN3jIs/m8TP2re3MOCXcnUa16PypvcISAg8Lwoa/ngnnqKkIvFc07JjuDA8XRqNfFFAYjNzTFOvs6NTC1obhOy8QDxFZhrnx1zlQSJPQ26DGJoYH86NbIvZfV8PklJ6Ri7++BhKqEw4RLRydpS5T2ODPcaLqSdO821AkCTxJHNhyq2n3P+bZLSjXH3qYGJpJCES1EP5tfmJ9wgIVeEYbUA+nT2RT/1DulaQCJHJsom695rP4frNUWEZat2+N7czqx1V/Bs07L4XSuvRR2PNM6EXCbn/q3aQgrKbU0pqelTnbRTh7n0wOT3cyK9No18FYAEN//GmIevZFWEA/XqVcGqcUNswlawIsyaJv72T40CCLw8OtK3pyb+jymM2VSAo5sV4uTLXMmrz6S5Xf+Z6BQONBs6m2a9YwmLeY7NRdQ32Tl1JJvznXCzEpNy+Qq59acwp5stiKH3tMEcGT2YTmFemKdEkuA4lnn9XF9zw9VHoa/m6BcBNP0WirR6GHm8wzffDcRNDH+JJUhlJWakX4+u77uyaaM3PdpWLV5ZqSdBIhEjeSQR5L4BNNYLYoddZxqVDIuIzPxoVnMGs6LfZmyjZw4gCggIVBoSpGIJkkcanGKn7owfdoapE7pz0dMebdw1cn2mMLuTFSJAVrcrH7gN4/v+A9lhlI+qXgO8FCUeqliCVCrigTiRBImkuI4w9G1MjZ/Xc/R4EaaabJKvhHHDOpAF83tR7cHbSEXDjm1Y/tlUBkTaUpRfFRsbFaKSOkQikSIRPXx1iSTiEvli7DuPoNveqYzrHYGL5B5SX1889Uv3UPUkYiRiMWI9QNWYd9ss48upfYmyLSK/qi3WKj3EaMmKWMKIeTFYORuQGn2bmsOGUkMKiGrTxDeFn6cN5WL15iyc3bfys0agXERmAbRr/BMfHvNhQEDxOwexHZ0nDiN00lh6hHlSzSifO3EZ1Jqynql+IBFLHtqPWIxUKgLEOHafyNAzk5nU/QI17LXEX8vBZ8oPdCzpYZJ6tqCJ2W9sNOhG/aoixFWb0MhqCb9KOtPMWUdcqf8YekVFRS/V/HN1cn7w/VrsjZdSJj/9b67HJFNgYIebmxWql+h5VKvVeLi6VYpej5NP+t/XuZGcj4GdO65Wqse7oXOTiI68Rb6JM9WdTJ6xrcWr5X7eVW76CPzXEOzk9eJ+foVfuEDdWrUefH8RCtNiiY6/i8zSlWpWysfrOs1dbkbFkmPmirulsmwhDyjg9NedmCH6gqCP3kIOaG6uZkiXI7TasZSeT8zhy0+5RnSCCBsPF8yepyJVZxIf9Te5pq64WiufY5gwn5RrUSSKbKnuYvZY3V2QeoOrN7NQ2LrjYv7I+E5hGjci48g3dcPDVmhYVxYVt9sCwmd3YVJiIFvmdKDKo0HqTG5ejSVVo8La2RkLVUW6igpJj40m7q4US1dXrJT/peHPinM//XnF9b5Ouf1yE0c8fSt5WL/SkWPi6IlJWWoqLHH3sSwjUEBAQOD1QWrqhJdpGYFiI+w8a5URWBoiDIxVpB/exoZdWTjp3yNq92ZuenflrVK2j5Obu1LT/AWUlhhj7/U8ej2IEXPXWpQWpczMGS+zUgKkpjjXLCuBBP5xcs+yOzgT3zF+jzunFNuBXY3azzlXWIqJk9c/svu6wPOjUw6qgICAgMB/FQlew+Yzx3Ybh8IOEaNRUNV3Ekve88dJeBMJvACatGxMmw2lvb/xq1ZF4B+gUquFZUuWVqa4l0KrfTipXpf00kWE9BGoCIKdvL78unr1q1bhERRYOrpiCVB4g6Mbb3D0VaskoJNUxG4NbeHSltVc+lc0Evg3qdQ5qAICAgICusGjc1AFBAQEXoRXOQf1zZwBLCAgICAgICAgoLNU6hC/Lq3y/edW8f93EFZnC1QEwU5eL0ob1XrRVfwCAq+Cl919QuDl0JWRF6EHVUBAQEBAQEBAQKcQHFSBEnIJX/M1y06kU3B5I9/O3VexE1j+QTS3Q9l14DJ3K3KIzKPkhrP266WcTC/gStAsft57k1f8KP8h/kU7EfKx0siN+J0fV58mozCK7XMWcejWK0xJTRLn94YQ/dwF+zVAe5eow/uIuFNZz5ZLxO/f8evpDAqjtjF30UES3sBCUHn2q+HOub0cib5bfJV0jn0h0ZWpKEHfreZMRiHR2+aw5OAtoc56CXTPQdUmsf/bQAYO/ZGQzFetzJuEltgjQRyOykeTcJodey+SUQRoE9j1xQD69OxFn979GT7pW34/k0QFTjV8adTnfuWL73fz9/PW9dobHN1wkOh8DQlntrHvYvrzn80tUAZl2AlqEg7NY2znlrRo0pRW3abw24W7j/1TnRDCgolD+XL705V2qWFCPlYaRX+fYNuRaxSoEwnfFcyVzCJAy+293zJ68CACBw9l1LjpzNsUxp0KFG5t6k4+bP8Bc0MLnnmvJvkypy8k8uCkSfUFgmbMY3/8f9BB1dxgz5wZBF0sfK40Kpsi4k9s5ei1fNSJYewOvlxS3t4sSrffF0HNhQ0z+GVvfPHVhQ3Mmre3MhXl5NYjXM9Xkxi2i4OXM4U66yXQOQc189Acvv3jMlEhZ4jJ+g9WYDqLBJVKH6VKiUilQqFUotIDtMlcOX4Kmkzmo6nD6VTtBksH9uG7UzkVkPmKEKtQ6qtQKUWolEqUKhV6r1qn/wyl24nm+mqmjNuOQeBq9h75gxkNrvL9+HmE5gPkE/PHZ/Ts9jHrDx4mLObuI5V2OWFCPlYaYqUSfaUKhViFUqFEodQDtKRGniasqCEjJ41lQHtn4laOYvhPoeQ+Q57I2IcuI4bQ0uXZyxhyjs5n4g97SXrDupKeJ43KRoxCWVzexCrFw3r5DaN0+9VBxEoU+kqUSjEqhQKlUinUWS+Bbm2PnBvKoh9CaTjuA258euxVa/OGoYepjSs25nLEJlY42FpgpAfF3oIeSks3PGsZ4OntxJ0jzVj150UmNmyAJP08mxevZm/EbdTG1WjSczgDmtkiQc3VHQsJt2iKaNcv7MxsypQf++N0bSvzf9nGxVQZdn79mBjYlKoiDbePr2TBmhBislU4Ne3JiCHNKD64JZ+4P+eybkcYSYo69JgwitaOxYcQalPD2bBgJfsupyKzb0jXkYG0cpSDyBQbVxvMZGJMrBywtTAWKolKozQ70ZJ2/BAX7Dvx6du2yMRQf1Av6q9ZQvDlKdSrdYeIywr6LF9Pzow2/P6oOE05YUI+VhoiEyucrU2RiYyxsLem6sPCDcqqVPPwQuVRA/uUE3T69QCXx9bDV6ol4+J21qw7wF931Bg5N+L9QX1obC0B8km9eZsqWkB9nT+XR2DV0pSzK4MISzWiVteRDHnbntzQ9SzaH0tBQj7Lv0/Grn4vBjV5QjltGhGbl7M+ONi9nuwAACAASURBVJJ0mS313htCvwB7ZORwdediVuy6RLrUlga9xtCvoTminGh2LV7GnkvpSG0b0WNMfxqYP97XkhO9k6XLdvFXuhTbRr0Y2b8hVW7sYdUFK1oYn2HN5lCSFe68M2QE71ZXlagRwZblazkUmY7Mtj6dhgygub3smWGFNw+xctEmwpMVeHZswcP+0kfSCDUxe5ZzwaolJmdWsik0FaPaXRkW+Db2UkCbQujaBaw7Fo/GzAG7KnLENv5M+J8vJlYuWJnKEBlbYmdtXlwvv2E8bb85nA9ayRWn3nzwlhkiQJsRStDav/Ee1AVveVk2VR5l2TvE7FlGiLwDfQPsEKPm+u6lhOi/S78AO8RouHVoNXsKAxjQwgQrF2tMZSKMLe2xNjcS6qyXQId6UNVEr5rNvmpjGd1QaHX8+8ioP3UdnwfIkXgMZ8XcLpRy+iBQiEarh1ylQKSOZFngEJbfqcegj6cz/G0tf4wdyPencwAN14NXMmf8ZIIKfAmoZ4NcfYHFE2ZxpfoQpk3tRwOjXLKKIP/cTwSO3Ym0wwQ+ntAZ54RwLmUU955rbgTxy14D2g4fQauibUyZ9luxGupIlgaOYEPh24yaPpnOZseZPuRHwvIA2VtMXv8lLfQlVB+xih+7mOmSob/mlG4nhWoNRWgf9n4q7bEzTiIuTgNie96fOo1OHqWc115emJCPlYbUdxyLP/JHLnFnwIJZdDAtPSXVag16+kr09UAdvYpJo1eTXLcv4ycPwU+7m49HziUsB9BcJ2TdVkKTtKCJ4cjaeUz/6k8UbYcxJKCIPdO/YNNNDVIzB6pZGSBSVMXF3Z1q1gZPxsjVVeOZsrkQ/8ApjOpoyumvxrLgXD7qv5YzfU4krv0mMrpXfQxzsyhCzV/LP2ZepBv/mziWHvUNyc16YhBV/RcrP55DlFs/xo3tha9hLtlFoIkJ4bcfJ/HRliKaDx3F+1XD+G7CXE7nAOpoVo+fyLbC5gyZMoYOpqf4Zux8zuc/I6zwIksnTOeQoj3DR3ZAuecXtsWXdBU/mkZoiAlZy/yPv2Kfoi1DAwPQ7p7O10E3AS13tn/Jh1s1BAwfS88aKRzaGYnY1hyQUnfcMqb5y5G4D2L+rI6YvIGF4Gn7VSBNPMyCJfu4raV4NODAChaE3EYqLdumyqNse9dDnnya5cv/JE5T/O7ZvXQpi5bvKb7WxLFv+XLC05XoSX0Zs+wj/OQS3AYt4JuOpkKd9RLoTA+qJn4j369X0P/XdlQV6dKpJwJQRE5KDNGXC4k9uJCV0bXp+6UnmrNf8fvVt5iwtDeNjAHvjxl5vDmfbzrJ+AZNgSI0noP5aWYPbEVAfghpGSIMbZxwr22Hd22AfI5t3MKdZp8x8V0flECNuq0pDgGRdWc+/W4QDfWhoKAly4ZHAFAQtoGgW8345Nf38FUALkM5tGUG+/6aiK9v+e1kgcpGhMVbb+HywzYWrKvPoNpiEsO3EpZegGXBGzau+zqSk0bs1SjUcUdYufY6Xr0+orqkgPObNhFTbzQ/dmuAEeAxaShn2s/gj7Oj8G34hAw9A/xGfkGf+nIoLMB/9UQuRarp2bIJrWv+xpwYD1p07ISduKRg36fwPFu3JNB4yiLa+SgAJ/oe2clPwVcY0SiduyJDLO3d8LL1xAuAAjLTM9EztMLezRsbT++nn0ebQXqmCAMre9y8bbl/Sz6gp2zKqJnD8DMEnHvz545fOHhxEnXFW9iW0IRJi9pTRwE49efYzh84eGU0XupywrR/si+pIcNGt6O2EdSeqcetzp9S+qxTPVT+I/m0b33kFNK12WomX4wELLgaEYlpizm09fFC4tmB2itWYeAsHIJTNhKqt2uNw+/7CE7ozv9sUjl84AKOLSfgWnSeH8qwqXE+NcqQV769T/driuvCYxxPHIBD4WnC8+ywST3FiduDcNQ7wckbHrTwMxec0UpGNxxUbSoH5iwlret8PnAUQ0LlR6G5uowhA1YQrS5CT1aHket/oYetYE4VQ0PU5q/44ogSYwcfJv82kPbVJaSviyXZqjYuqvv3yXF0tCQrNKFk5b0IixqeWN5PZnkTBk/xZ/Tn7WizsT39x02gTwMRN2+mY+nrWOrwi56+ClWJlYoMDFCqEwHIi40lMSWMD1scKTFiLXm5RnQuLEWIwD+OxHsE836SsGjTYmbv08fG046qRoYYG0tftWoCz0B9dTs/zDyO0tge77FL6d3WDQlp/B2XSlVvZx70bcscsLPI5nzivaeF6MlRKcUl3w1QKdTcKajAGoLcOOITU4n4rCMnS8p5UV4eBh3VyBr0Z3Tjiczu3okdrXsTOLIHvuYy3uo/lkYTZ9Gj0zZa9R7O8B71MBc/IlPWgL5jGzNlVnc6b2tNr+Ej6V7PvDjMwBxTRcl9CmssjTNIStGQlx/H7dQIvux4gmJRWvLzDHlXDXlxZYepk26RauKE7X2Z+lUwVuqRXOrD6qGvUpbI0MNApUCdVACIcXC1J+3PA4TGm2EafoC/JM60sRCXKkWgGIlLO9pUX0Pwvjh6tD/DoUvVaDnNGXHu9jJtqmyyyrV3cRM/Gjku58TxZFrrhZJSbyC9Un/i+IkUWouOc9Xdn08tBX+istENBzX/BH/sSyTedDTttwHae9zOy+Jan26kfLOOyY3lLx2F2G0wK44NrhR13zwk+ASuZEm3x4fnZHI54twssh+8h7Rk5+QiMTRCUWpZleD03rdsbzGYAyu/5qshY2HnAgxlIvJyc3ieJXESfX3kdt35Ze8nCB2muoAcx1ajmdmq+Eqb/DtDNrriVUNwUHUdSe0B/Pzze6ge+1WKXC4iLyf74bSNohxyciUYGCpKE/OCkeujr2/Lez9uYYLP07byzhcbaNr3MOu+n8n4abBucW/sHNrz2QY//nf4N36cOZaP2cDi3naPCsWh/Res8+tLyG/fM3vsNNiwmM5PCi/KJbdAH6VChERPH7nte3y3ZTJ1nlAj9045YftkiAtyyX+ppdpaMtKyMZLGsGLyWPKrVKfbrLH4qyrw1zcZsR2t2nqzbPtewvXDifRozScOYsgrz6bKGuZ/hr1LXPBrYs26Ywc5LLuOe3N//NO3s/RYMIdEl3FsOhlroT1R6eiGy69ozw+nT7P/j61s3rqVTUsH4iX3YsCS1Yxp+PLOqcA/g9KnHh4pxwmOyC7+Iescfx5Ow8e/PqXMKIS8m8TE5yIydqP14B7Uk6dwO1WOd21XEo8d5mo+gIakU4c4/4wtxuQ+9fFKPcHBi9kPftMW5JcxtCbwr6JN5ujPq4hs0JV3hFGK1xQlNX2qk3bqMJdKNuzIjtjPifTaNPJ9PgdVIpchys7iyamiAMhrUccjjTMhl3mwL4i2kIJCyE+4QUKuCMNqAfTp7It+6h3Stfkk3LhFrsgIl4C+vOcrJ/VO2uMy8xOIvZWLyKgaLfp2xkeeyp204uavNu4g20+koAXuhYcQnutJHW8pslo+eKSd4cjlh7uTaAsLKITyw9xr4Jx2jjPXCor32AzZzOHn3hg4m5irt5DYN6TzoGEM6f8+De0rsRHwn0WEZat2+N7czqx1V/Bs0xIrUfk2VTbPsncJbv6NMQ9fyaoIB+rVq4JV44bYhK1gRZg1TfztEfzTykc3elARIVcZcd8V1eYpkUllKAyVyIX32ytGgkQqQSx5etma2KU3H445yZhhHThX04Gi2Giy609nflcbROQjlkiRih6amPbeOX7pO5tr1tUwTIkkse4YRtZU4Ooyjf6HRzOg3Wm8LDKJy23Gl6tbgFiCRCJ+aKRiMWJJ8ZXYoSfTxp5kTGA7znq7Y5R/m9i0ukzf8QXNhDbNv446cgGDxxygyK4KmltRJJh3Zuac94und2iT2DS6O3PD8slJzyPnfD+ab7Sg/Xeb+bBRRtlhTYSM/KcRSyRIxJJSFqWKcew+kaFnJjOp+wVq2GuJv5aDz5Qf6GglgnwxEqmU4uL96HcAERKxhJKiiqx2U+qmzOXjoRdwbz6emR+IEUtK7hfb0XniMEInjaVHmCfVjPK5E5dBrSm/MThrCSPmxWDlbEBq9G1qDhtKDXEWB5YMY36MFU4GqVy9XYuhQz0f01ybFcGyYfOIsXLGIDWapFrDGOwphSQQVTEiYdFg+q41ISf6JnaBc2lnIUJMV8YNO8u0sV0J93TFKP8OcRm1mLz+I5rYlRPm0JlhH+zlw1G9ueAq4Z7El7pe+mhET6eLRCJF8kh9KJKIkUgkgCF1G3uyYH0Ix4vM0GTfISosBqvAxfzSy/Wfyvr/BCKzANo1/okPj/kwIKBqcY9bmTa1nql+FNvm/XwQi5FKRc+2d0Dq2YImZr+x0aAb9auKEFdtQiOrJfwq6UwzZx1xpf5j6BUVFb3U4MSj5z7r0lndarUaD1c30DG9dInKOmO9IDWGqNhMZNbuuNmoyu+Wz0/memQ8WUp7PNyqPmiUoM0mISqaJD1L3N1tUFWwYaLOiCPqejIaQ1tcqllhIDRjK52K2YmW7IRoribkILWoRnUHY11p/b5x3M+v8AsXKuFM80LSY6OJuyvF0tUVK+WL9RgUpt0gKi4PU7fq2JRWuNWZ3LwaS6pGhbWzMxaq4oJckHqDqzezUNi642J+v7YoIPVGNDezlNi6u2BeWjumIJUb0TfJVtri5mKOHMjfP413Ftny89reqK7dpNDSDTcLxRNq3ORabAoalTVOzpaoxBUJU5MZH0VcjinV3Kx57iQqOMWMTl8j/mIzU9+SAxpurR5I9yOtOb6893MK+29QcbstIHx2FyYlBrJlTgeqPBpUhk2VT+XY++vO/fTnFftPwjtE4KWRmblQ06yCN8urUq121ad/F6mwqeGDzXPGLanigJevw3P+S6DyEaGy8aDO82aggI4jxcTJC5OXlWLqjLdpOTdIjLGrURu7J36WmTnj9VTdIsPM2ZtyqxyZGc7eZdwhNcWpZunKSIzt8Kj9pBbPCpNgbO9FzfL0KQ+RAcaqdEK2rWdPljPye5Hs2RyPV9cGLyrxzSH3LLuDM/Ed4/e4c0rZNlU+lWPvApWD4KAKCAgICPznEdvXo22ASRn7O79CJN4MnT8X220HCTt0HY3CgrqTltPJX9hm6llo0rIxbTaU9v7Gr1oVgX+ASnVQr1+7XpniXgqN5uFEdV3SSxcR0kegIgh28vpy44YwzQm5L93aQe7fN9C91DCjdptu1H7klyQhzypgt26809MNUm5wI+VfUkrgX6NS56AKCAgICOgGj85BFRAQEHgRXuUcVF0b7BAQEBAQEBAQEHjDqdQhfl1aLS+s4n82lbWKX+C/jWAnrxeljWq9+Cp+AYF/n5fffULgZdCVkRehB1VAQEBAQEBAQECnEBxUgRJyCV/zNctOpFNweSPfzt3Hcx+I8k9oFfYrM5acIL3gMptmzmVfvA4o9UZT2Xaim3b3XyM34nd+XH2ajMIots9ZxKFblZvImqRz7Dscxb3nOa+44sI5vzeE6Lv/hPDn1ePwS+ih4c65vRyJvvvMO//p/HrdqLz0eDwPNEnn2BcSXZmKEvTdas5kFBK9bQ5LDt7izc65l0NwUAVK0BJ7JIjDUfloEk6zY+9FMooA7S12ft6fPj170adXX4aO/pSlB+NKTjTWcnv3VwzqPYTPtlxH/aRI9TU2fTSQvoPncDwL1FfXMS1wDseyHt6iidnIJ4OmEXTtkWKsvsyaCWNZEVGANvYIQYeiyNckcGbbXi5lvNSaPoGXpjQ70ZKw/TMCpwVx7YERFBD562RG/HiMLG0SJxZOos87zfFr0JR2//uSnbEF5ch7dU/3X6Xo7xNsO3KNAnUi4buCuZJZBGi4ufMbJi0689gJ5QWhS5j85XbiNKBN3cmH7T9gbmj5hwirL2xg1s/7iPsnfEj1BYJmzGN//Ct2UNUXCJrxc+l6aFPZNbU9veaElieACxtm8Mve+GdGVXp+vblUXno8ngfqCxuYNW9vZSrKya1HuJ6vJjFsFwcvZ/Jm59zLoTMOqiZ2Ix//rxd9evYs+Qzkp+O5r1qtNwgJKpU+SpUSkUqFQqlEpQdoU4g8cQY9/yl8/NF4etfLZMPoofwcXgBouXPpGKeiL7L3x6Ucz35c4r1Di5kXEs31o2e4eleLxMKQ7NMb2HXmfr5qSQrZwpbgLWwKjn/Q0lRf38+W/WnILSVIlEoUSgNUIgNUShUq1dOHMgr8m5RmJyKsGvogDf6W2ZtuogU0f69n5o+hmPvWwuBeBGcSajN25V4O7/uF9nmb+HTmTtLLlPeqn/G/h1ipRF+pQiFWoVQoUSj1gCIyr4dx4q+ExxqXmqTLnAy9RroWRMY+dBkxhJYuwpbZ5SIyxqfrCAa1dqkUcaXn15vLa5MeYiUKfSVKpRiVQoFSqSzlGGGBiqIztY4mOZIzMQreCWyBpR6gp4+Lg+xVq/UGoYepjSs25nLEJlY42FpgVPwOA/QwsKpODW8FNTzEhP72AecupKGtaw6ArE5H2sZsJWh/Kn7vmRW3erRJ7F5/BPv3O6O34nxxFIaN8PPJYcmJvygIqIeMe5w5fQ2H6nZEHztO6hAnLERa7pw4RaxHAH5VReiZ2VDNxgyZuAqWjrZUNRaK+6uldDsRWb7LxJEb6TrvJw60nErB9wuJ8Z/OD35GIGrNuK/u/9+Llk0cWRB8ixQNmIjLsDuBSkVkYoWztSkykTEW9tZUfVi4n0E+qTdvU6Wk01CbcpZ1C9ZyLF6DuYM9xnIxNv4D6Fpy763gRWzafY5kRU06jwwkwF76mLR754JYc8WZXj3qYyICtJmEBf1KvFd/3srcxNo/QolJzkVqUZM2A4fSwV35hD5qoncsIsyyJx80MEOEljtH17I9uylD2roAWtIjNrNibTBR6TJs67/HwAEB2MseU4KNq67g3LsH9UxFgJbM0CB+i/NiROeaaNMi2LJ8LYci05HZ1qfTkAE0f0RA/s1glgTt5nyyAu8uIxnytj1SIC/1Jkma+72rGu6c+o1lvx8jNkeFY8MuDOxX/4lnKVvX0vPrzaW09Mg+F8TKK0706vEWxdmYQdiGtcR5D+J9r1wiNi9nfXAk6TJb6r03hH4B9pTvUWjJuLidNesO8NcdNUbOjXh/UB8aW0PMnmWEyDvQN8AOMWqu715KiP679AuwQ4yGW4dWs6cwgAEtTLByscZUJsLY0h5rcyPBQX0JdKYHFUBkXINWvfrQ+3996N2nK43shYPV/z1k1J+6js8D5Eg8hrNibpdST1xRJ17kcqoNnp4mD41HXIPOHa05GfQHCSXdoOprGwm6VJeuHSwf/llkSlN/L5JPHeOGGsgL5/RFR94d2RLri8c4eQ/gLqdOXsHJrxk2YpC9NZW1XwUgl3gwbNVPdNa5Y2DeNMqyEzHOPT+in9k+Zo8Zy5yTXoyc1BbzJ7JLmxnBroN/Y9ewAQ7i8uQJVCZS33Es/sgfucSdAQtm0cH0YSIXZfxN2KlTnC75hN3I5MEgtuY6Ieu2EpqkBW0SO76cwjZNS4aN7Y1HSjC7I8XYmhefZ6+N28ayYCUtBw2hedFuPv8i6Ck99EW3ODh/KfvvFMegTTvA6vlHSZTlEXU+FuOm/2PctLG8a3yS2Z+uJvqpeUOFRAf/yo7QlBIdNdw+u5nfDxfvMKGOXsXEiZtRNw9k0piOmJz6ignzzz2pBAkH5rN8351iGdo0Dq6cz7FEGaijWT1+ItsKmzNkyhg6mJ7im7HzOX9/DoQmju1LglG2GsSgFkXsmf4Fm25qAA0xh9ex/WwSAAUXFjJu2p9I245k0sh3cbgdQWTm41MDytO1vPx6EyktPeTSREJ+XsK+2yW2lHqAlfNDuC3V4+qq8UzZXIh/4BRGdTTl9FdjWXAuv9w41NGrmDR6Ncl1+zJ+8hD8tLv5eORcwnL0kCefZvnyP4nTAOpIdi9dyqLle4qvNXHsW76c8HQlelJfxiz7CD+5BLdBC/imo6luOVmvGTqVdkX5d4g+c4qzF2JJL3/Kk8C/SgGnfuhMh7Ytad7uCy559qCjl/yRcDHVOr+P56XNbIlWA/mErd9CakAPWpk82n4UYenvj9uNU5y8raXgr1OcV/nS+O3mvGVwjuNncyH3LKcirGjazEV3uvcFKobci35D/Eg/eYai9kN4/5EGZsaeT+jctiXN/Hrxu6QP04fVQ16uMIF/C030Vr79/HO+LPnM3HT56fnkAOpoLkSa0rz7O9TxbkS3Dj6I8g1wdC7u5RRZdmDKV31pUqsenbo1w+TqxadESL3a8rbNRQ4eSkKLltTDwVxwfJs2rua0GPU5ge82wMO9FgGdmmIdf42Ywud5kkIitmwhsckIxrT3wb1WSwL7+3H3cPCTStCmlQ2Xgg+RpAVt6mGCIxwJaOtK4fktbEtoQuD49tSpXou3h/en6d3DHLxSoojIkvbTvqJP01r4vtcNf9OrXIp6MrUKCN+2g5SmgxnVtjbutQP430cjafGYk1lBXQXKROLRjlaOf3HgQAIatKQcOsBFx5a0drrE1i0JNB4xnnY+1anZcjh9/e5yJPhKOdIKOL9pEzH1ApncrQEeHvXoOGkoTdJ38cdZNVZ+TXGNOc7xRA2a+NOE59lhE3+KE7e1aJNOcPKGB35+5rrlUP0H0BkfQGxWnfoO+ziwejn34i5wKc2F/nMWMq5xlUqRr7m6jCEDVhCtLkJPVoeR63+hh61gThVDRt2hS5jZVkpOYjhBX3/CoAkmbF/43oM7RLYd6NzwZxYEhTJkbCrrd8vpsKQRSmIfkyR29KeJ4yJOnkzFPzmU7Dqj8FTVIaVBEbOORpBteJJwZWNm1NAZ0xSoKJq/+WPjaarU9ODe3vUEj3qLdlWLy1iVgCks9c0i8+Y5dsz5ilF9YdnGKdR7cgRX4F9H8tY4gn5+D1XJde6ucbRaXMqNYidc7dPYd+As8WZmnD9wEYlzGyzut0PkKhQl3/UMVCjUSaVE5kbrVo78fuAgt7u15PiBi1RrNQ1HsZa7Fzczf+FmzsSkkV+QTWphfZ5vWVQu8XGJpEZ8xvsnSuoPbR55hh2fVALXNq1wXHeAw4ndePv4Af5ybcUUJzF5EXHcTo3gy44nKH4ULfl5hrx73wfVk6NSPnhIVAo1d/K1T/T1ZHErIZOqdYqH/l9OV4EykbjQtm111u7fR3zP9pwNvsT/27v3qCiuO4DjX2ZmYWEFNDwXVgXkJSBCwAci+ASNTXwgpTbtsQ010Sa2aFV8VGPaRq3JUavJMUeN2pOXJ2psJMekNcFHBPWomPpCUSCKpCquoiagICz9A4hKwSKSsOLv8x+Hu3d/O/fuzm/u/GamW8IsfCoPc/7CFY7MH8m+uk1bc+sWHUY2ethV5zvOFV3BLcyX73+SbLtgci/j3xe+RY2NI6brWvZmXybR5hDm6FSevfI3sveaSVSyORMYz8sekk+0NqvJAlS/FBasT6n9w3KNnbOeYfLi95my9aXW6T9gAuuyJrRKX48jW0dX3N3twX0Ev/v1Z2yYm83RytF41jdQ3EhIHsySeR+y2a2EvT5j2RhmCw2fj6wFEBfjysasTL68fp7QUU9ihwO9+0dyfdVuPnc8yO0+0+kp5cePGAsln7zGWwUDmL91IudeTGbpir3E/aU/jgB2Tri4O+Hi7sXk2afZMeYTtudOITpaBvqRYSnlapkTWuHbzEqroGPQz1iYNhADcP+Tp3fT8E1MxO+dTDKPK+zNDWLoPBNq5SFWznyTouQ3WL8iHMfClYz/VeO3/7GxsaHa0liyoaHX6/EavZRNMyLvkxyC5pfIkG7vsCPzODZZuQQmzMOkQoVej533aF7fMoOIhh00+0PqsLW14datm/ep8m1+rKIpKqZhwwlds5XtOXq+OhlMwstdULVc9HpvRi/dwh8imzuIOuzsFG6Vl90Zs5pyym9qdHC0B82PuFgjH2TtYJdtAYED44kv3cqarEx2Krl07T8Do1QktjrrTPmVjjwZ5Y+N+WJbRyIaqrrEvuxcLL6B+Db47jvGJzNM/08WLc8lKmVUXY1hQ7b0GNgX2/2ree9YN/r0dqx9bWwcPYo/Y+W2y0QPlNO/j5xrO1m2ZB9BL05hiFsgv0wfh27LItZ8VYHlcgH55vqEwsL1wq8x67zpYrSa42PRHGWF5H+j0bnvWJ6bNJHxY2LobP/g3ahdEhkalMfHizaRFzqMIUYFKi5yqdSZwMjudNJu85/jeZgbXT5VcXV1xlxQyA0LVF/cyeYv6u8AYkdYZDBXD+wmt7y+vYXblY3UCahdSEgIIm/LIj46FUrCUCMKYBseSfDVA3x5pwMstyt5oEoDHAgJ8+PS/j0UVFJ7wdShPRy75/anDxCraJLikcDwqGIyFn7Aqfq5ZBdORPBVDuzO5c6mvc39N60DPSKDuLp/F8frXlR25HP2lvYkJsoe0AiI74fr4fX8/UgXoqM74tmvL14561iXYyQ2vjOSn7Y+K9lDWDAXnkXz8aOjAlgusmv3SRx6jGrrwAR67PVV7PnTYPovhhqLDU7BT7Hg9VQCVDihauhs66aRPprkMf5s3hTGuOFuKIDFRkPTVLS7vr12UYPpZ7ORDFMSMXWnRRSXOAb0WMhfTw8hLcbQRCzCOlVxfO1S/uXyHO+l1P5Q20f9lqkjPmX2sk0kpZmZPXkzlT6BeKiXOXnyJtHpKxgrJTZtTtU0NFW790pjVUPTaXU7XBVNp0PRAMco+oa8wYe7s6lxqaas5CQ5hUaeX/UmSaqKTqfcWQlUNDStid2L6sXQERGsXniUXq8Mrr2QztCPZ4a9zZ9njifPu4YKN2+MBpvvY1C1uhiwJTL55/hPWkxq6sc4VRiI6hOGfZVau6KWPI2JB6czLTmHYH8nKkuKuBaezsY5cQ2DwCtxBBGrFnKs1ysMqitFUU3JTJl0kFlpyRwO8cepooSia+HM2DCH2HviAFDQVI36j6lpBADzLQAAAvpJREFUOjRFq63JHzeVZ7PSeSn5EMFuNyi+1Z85b/WubV/XpvmxiiYpLgx6uh8r0rOISK2bS5hImjaJQ9PTGJcTQjenCkqKrhGevoGZcdw1BkDdvAWVrinTeOHADKanHKV7Zwvn88uJTF/CSM/auaELGUSsy/ts6vBTerkpqG6xxHiu5l0tiQG+VpJKtTM2NTU1D3Uf2buf+9zyZ3VXsH/BaKZ94UCQbwfKi/L4xukp5q6YyzBTy45LqqqqCPYPeMi42jd5xrpojlaZJxWlnMv/GnOlAe/AADwNkpz+UOrH6/DRo636TPPK/a+S9KrC/I/m0MsOqC7m3dSx7EnMYPUvPJrRw/9TgTk/jwuKN0F+Lve9JVD1jWLyzpbj6h+I+//UMVdxvfgMZ83VdDD64uNheODVrarrxeSfNVNtMOLj64GhJbshSzkX8s9wGQ/8/T1xaHTKP3ys7dGDzNvKnNdImXqB5zOW8ZO7L1mpuk7xmbNcqTZg9PXFvVmDeJvSs6cpuqHDw98fz8YHrd2r3/60cX5gJWm/HX3/uI3tvznDmeLv0J7wIcDPRU7zCtFe2HWia2gnurZ1HKLFlA7OGEp3kbFhG2W+er499Sn/OB/GmD4urfQOdrj6h+PajJaqk4mQ8Kb+q+Fs6k5PU8sj0ZxNBD9MBwCKA8bAnhjv/04PHevj7SaHtmVyo9fv6d/wemrNGVP3njzYptXRySeUTq0ao2gpK0lQARQMnkFEeDajqRBCiB+VFjaJ5cu9ydiRw66Cauzdo5i6djRxcnpTtJXqq5Q/MYAJT8fj3NaxiFYnvyxCCCGaQYdndBIvRCe1dSBC1FK9GTp5TltHIX4grVqDKoQQQggh2oe2rEF9PCuAhRBCCCGE1XroFVRrduL4CULDQts6DKt1MjeXoOBgFEWOU0TTZJ4IIX5MhQUFGL28sLdvwY12RbvRrhNUIYQQQgjx6JElESGEEEIIYVUkQRVCCCGEEFZFElQhhBBCCGFVJEEVQgghhBBW5b+7LSe5K3vuvgAAAABJRU5ErkJggg==;" vertex="1" parent="1">
          <mxGeometry x="-2080" y="1050" width="680" height="164" as="geometry" />
        </mxCell>
        <mxCell id="cUy3ryo8K3psTatHILnv-76" style="edgeStyle=orthogonalEdgeStyle;rounded=0;orthogonalLoop=1;jettySize=auto;html=1;exitX=0.5;exitY=1;exitDx=0;exitDy=0;exitPerimeter=0;entryX=0.5;entryY=0;entryDx=0;entryDy=0;entryPerimeter=0;dashed=1;" edge="1" parent="1" source="cUy3ryo8K3psTatHILnv-80" target="cUy3ryo8K3psTatHILnv-75">
          <mxGeometry relative="1" as="geometry">
            <Array as="points">
              <mxPoint x="-875" y="710" />
              <mxPoint x="-1225" y="710" />
            </Array>
          </mxGeometry>
        </mxCell>
        <mxCell id="cUy3ryo8K3psTatHILnv-78" style="edgeStyle=orthogonalEdgeStyle;rounded=0;orthogonalLoop=1;jettySize=auto;html=1;exitX=0.5;exitY=0;exitDx=0;exitDy=0;exitPerimeter=0;entryX=0.5;entryY=1;entryDx=0;entryDy=0;entryPerimeter=0;dashed=1;" edge="1" parent="1" source="cUy3ryo8K3psTatHILnv-106" target="cUy3ryo8K3psTatHILnv-88">
          <mxGeometry relative="1" as="geometry">
            <mxPoint x="-850" y="570" as="targetPoint" />
          </mxGeometry>
        </mxCell>
        <mxCell id="cUy3ryo8K3psTatHILnv-100" style="edgeStyle=orthogonalEdgeStyle;rounded=0;orthogonalLoop=1;jettySize=auto;html=1;exitX=0.5;exitY=1;exitDx=0;exitDy=0;exitPerimeter=0;entryX=0.5;entryY=0;entryDx=0;entryDy=0;entryPerimeter=0;dashed=1;" edge="1" parent="1" source="cUy3ryo8K3psTatHILnv-74" target="cUy3ryo8K3psTatHILnv-101">
          <mxGeometry relative="1" as="geometry" />
        </mxCell>
        <mxCell id="cUy3ryo8K3psTatHILnv-108" style="edgeStyle=orthogonalEdgeStyle;rounded=0;orthogonalLoop=1;jettySize=auto;html=1;exitX=0.5;exitY=0;exitDx=0;exitDy=0;exitPerimeter=0;entryX=0.5;entryY=1;entryDx=0;entryDy=0;entryPerimeter=0;" edge="1" parent="1" source="cUy3ryo8K3psTatHILnv-104" target="cUy3ryo8K3psTatHILnv-107">
          <mxGeometry relative="1" as="geometry" />
        </mxCell>
        <mxCell id="cUy3ryo8K3psTatHILnv-182" style="edgeStyle=orthogonalEdgeStyle;rounded=0;orthogonalLoop=1;jettySize=auto;html=1;exitX=0.5;exitY=1;exitDx=0;exitDy=0;exitPerimeter=0;entryX=0.5;entryY=0;entryDx=0;entryDy=0;entryPerimeter=0;" edge="1" parent="1" source="cUy3ryo8K3psTatHILnv-68" target="cUy3ryo8K3psTatHILnv-55">
          <mxGeometry relative="1" as="geometry">
            <Array as="points">
              <mxPoint x="-245" y="950" />
              <mxPoint x="-665" y="950" />
            </Array>
          </mxGeometry>
        </mxCell>
        <mxCell id="cUy3ryo8K3psTatHILnv-197" style="edgeStyle=orthogonalEdgeStyle;rounded=0;orthogonalLoop=1;jettySize=auto;html=1;exitX=0.5;exitY=0;exitDx=0;exitDy=0;exitPerimeter=0;entryX=0.5;entryY=1;entryDx=0;entryDy=0;entryPerimeter=0;dashed=1;" edge="1" parent="1" source="cUy3ryo8K3psTatHILnv-181" target="cUy3ryo8K3psTatHILnv-94">
          <mxGeometry relative="1" as="geometry">
            <Array as="points">
              <mxPoint x="375" y="1050" />
              <mxPoint x="478" y="1050" />
            </Array>
          </mxGeometry>
        </mxCell>
        <mxCell id="cUy3ryo8K3psTatHILnv-225" style="edgeStyle=orthogonalEdgeStyle;rounded=0;orthogonalLoop=1;jettySize=auto;html=1;exitX=0.5;exitY=0;exitDx=0;exitDy=0;exitPerimeter=0;entryX=0.5;entryY=1;entryDx=0;entryDy=0;entryPerimeter=0;dashed=1;" edge="1" parent="1" source="cUy3ryo8K3psTatHILnv-114" target="cUy3ryo8K3psTatHILnv-198">
          <mxGeometry relative="1" as="geometry">
            <Array as="points">
              <mxPoint x="-255" y="1050" />
              <mxPoint x="75" y="1050" />
            </Array>
          </mxGeometry>
        </mxCell>
        <mxCell id="cUy3ryo8K3psTatHILnv-235" style="edgeStyle=orthogonalEdgeStyle;rounded=0;orthogonalLoop=1;jettySize=auto;html=1;exitX=0.5;exitY=1;exitDx=0;exitDy=0;exitPerimeter=0;entryX=0.5;entryY=0;entryDx=0;entryDy=0;entryPerimeter=0;" edge="1" parent="1" source="cUy3ryo8K3psTatHILnv-233" target="cUy3ryo8K3psTatHILnv-192">
          <mxGeometry relative="1" as="geometry" />
        </mxCell>
        <mxCell id="cUy3ryo8K3psTatHILnv-327" style="edgeStyle=orthogonalEdgeStyle;rounded=0;orthogonalLoop=1;jettySize=auto;html=1;exitX=0.5;exitY=0;exitDx=0;exitDy=0;exitPerimeter=0;entryX=0.5;entryY=1;entryDx=0;entryDy=0;entryPerimeter=0;dashed=1;" edge="1" parent="1" source="cUy3ryo8K3psTatHILnv-239" target="cUy3ryo8K3psTatHILnv-69">
          <mxGeometry relative="1" as="geometry">
            <mxPoint x="890" y="1040" as="targetPoint" />
            <Array as="points">
              <mxPoint x="965" y="965" />
              <mxPoint x="670" y="965" />
              <mxPoint x="670" y="550" />
              <mxPoint x="478" y="550" />
            </Array>
          </mxGeometry>
        </mxCell>
      </root>
    </mxGraphModel>
  </diagram>
</mxfile>
